<?xml version="1.0" encoding="UTF-8"?>
<svg version="1.1" xmlns="http://www.w3.org/2000/svg" width="512" height="512">
<path d="M0 0 C1.97226562 -0.04253906 1.97226562 -0.04253906 3.984375 -0.0859375 C12.77403558 0.43128427 19.93694249 5.13036444 26.75 10.3125 C28.30051477 11.46259893 29.85130487 12.61232674 31.40234375 13.76171875 C32.58739502 14.64802979 32.58739502 14.64802979 33.79638672 15.55224609 C37.93311619 18.62536273 42.12604269 21.62019046 46.3125 24.625 C47.82505315 25.71238196 49.33684539 26.8008236 50.84765625 27.890625 C51.48195557 28.34727539 52.11625488 28.80392578 52.76977539 29.27441406 C54.25 30.375 54.25 30.375 55.25 31.375 C57.52793744 31.48439916 59.80932401 31.52193659 62.08985901 31.53321838 C63.1753238 31.54062535 63.1753238 31.54062535 64.28271717 31.54818195 C66.72566643 31.56363148 69.16858927 31.57193761 71.61157227 31.58032227 C73.35554235 31.58989494 75.09951009 31.59990465 76.84347534 31.61032104 C81.59324967 31.63744235 86.343034 31.65841266 91.09284329 31.67832303 C96.05100422 31.70013818 101.00913403 31.72754866 105.9672699 31.75437927 C115.36307573 31.80436682 124.75889877 31.84928308 134.15473837 31.89240164 C144.84865358 31.94172232 155.54253759 31.99665955 166.23642266 32.05208123 C188.24092081 32.16599431 210.24544754 32.27207137 232.25 32.375 C232.25 48.215 232.25 64.055 232.25 80.375 C226.97 80.375 221.69 80.375 216.25 80.375 C216.25 102.155 216.25 123.935 216.25 146.375 C217.9 147.035 219.55 147.695 221.25 148.375 C226.98653877 152.19935918 230.21996251 156.7515726 232.25 163.375 C234.19490077 177.96175577 228.60063897 186.88726309 220.5 198.4375 C219.91089844 199.29021484 219.32179688 200.14292969 218.71484375 201.02148438 C214.44693588 207.17806412 214.44693588 207.17806412 213.25 208.375 C208.96 208.375 204.67 208.375 200.25 208.375 C200.25 218.935 200.25 229.495 200.25 240.375 C202.828125 240.2925 205.40625 240.21 208.0625 240.125 C219.8303656 240.01172883 228.63386916 243.14977113 237.25 251.375 C246.085666 260.63057883 248.86620265 270.26401064 248.72290039 282.81005859 C248.48301687 288.97421995 247.38861411 293.99589828 244.25 299.375 C243.77949219 300.18582031 243.30898438 300.99664062 242.82421875 301.83203125 C238.98517182 307.97252233 238.98517182 307.97252233 235.68745422 309.77789307 C231.77639508 313.94512571 232.54800872 318.42385234 232.59057617 323.93652344 C232.58009247 325.11728958 232.56960876 326.29805573 232.55880737 327.51460266 C232.5349512 330.74801296 232.53313193 333.98053573 232.54110122 337.21399593 C232.54422615 340.59468815 232.51919248 343.97516903 232.49714661 347.35577393 C232.45969122 353.75534391 232.44755777 360.15470139 232.4445222 366.55437016 C232.43983296 373.84100467 232.40691407 381.1274261 232.37162435 388.41396666 C232.29967273 403.40095313 232.26317039 418.38783796 232.25 433.375 C233.03101074 433.67446533 233.81202148 433.97393066 234.61669922 434.2824707 C237.33662606 435.41094026 239.14684146 436.65327395 241.375 438.5625 C242.03757812 439.11292969 242.70015625 439.66335938 243.3828125 440.23046875 C255.66646684 454.33868263 248.25 485.06300685 248.25 496.375 C84.57 496.375 -79.11 496.375 -247.75 496.375 C-247.75 445.9296875 -247.75 445.9296875 -241.75 439.09765625 C-241.09 438.54980469 -240.43 438.00195312 -239.75 437.4375 C-239.09 436.87160156 -238.43 436.30570312 -237.75 435.72265625 C-235.69703863 434.33931314 -234.13821676 433.90457463 -231.75 433.375 C-231.74044312 417.68471175 -231.76505165 401.99487274 -231.8302784 386.30473804 C-231.8597692 379.01940742 -231.8781004 371.7343685 -231.87011719 364.44897461 C-231.86318692 358.0986056 -231.87723918 351.74868805 -231.91643608 345.39843005 C-231.93645811 342.03618246 -231.94600707 338.67464371 -231.93042374 335.31235695 C-231.91829674 331.55754269 -231.94325417 327.80469105 -231.97705078 324.05004883 C-231.96482986 322.93658585 -231.95260895 321.82312286 -231.9400177 320.67591858 C-231.87805137 315.31367292 -231.87805137 315.31367292 -234.07410812 310.62137413 C-235.85132028 309.07896879 -235.85132028 309.07896879 -238.75 307.375 C-247.37062168 297.08284165 -248.73567492 286.48415757 -247.95703125 273.47802734 C-246.89710291 262.71125531 -240.56075894 254.35430225 -232.5 247.5625 C-221.92734238 239.93457588 -212.34153701 239.97207082 -199.75 240.375 C-199.75 229.815 -199.75 219.255 -199.75 208.375 C-204.04 208.375 -208.33 208.375 -212.75 208.375 C-215.73458375 205.16768612 -217.64101758 202.88105648 -219.70507812 199.19921875 C-220.87916907 197.14949736 -222.14053115 195.17186607 -223.421875 193.1875 C-229.98429426 182.9790361 -232.82996254 175.68905558 -231.75 163.375 C-229.77674527 156.57921688 -225.84535252 151.07039269 -219.75 147.375 C-218.43 147.045 -217.11 146.715 -215.75 146.375 C-215.75 124.595 -215.75 102.815 -215.75 80.375 C-221.03 80.375 -226.31 80.375 -231.75 80.375 C-231.75 64.535 -231.75 48.695 -231.75 32.375 C-223.83290039 32.42382324 -223.83290039 32.42382324 -215.75585938 32.47363281 C-198.28561713 32.5725779 -180.81570091 32.60585148 -163.34519196 32.60559464 C-152.75625961 32.60703223 -142.16826547 32.63064576 -131.57958984 32.70751953 C-122.34421358 32.77451094 -113.10984902 32.79881968 -103.87424898 32.77309489 C-98.98915503 32.76094635 -94.10614824 32.76934012 -89.22135925 32.8289566 C-84.61072743 32.88454999 -80.00350293 32.88249937 -75.3927784 32.83869362 C-73.71271128 32.83244332 -72.03241408 32.84617356 -70.35273552 32.88284111 C-57.31141964 33.14955921 -50.09426628 29.34312458 -40.36347866 20.76969671 C-38.25894651 18.95053161 -36.03148707 17.34282256 -33.75 15.75390625 C-33.07066406 15.27373047 -32.39132813 14.79355469 -31.69140625 14.29882812 C-31.05074219 13.84958984 -30.41007813 13.40035156 -29.75 12.9375 C-28.74259766 12.22303711 -28.74259766 12.22303711 -27.71484375 11.49414062 C-18.71165539 5.15374497 -11.41340269 0.0220336 0 0 Z M-26.48046875 32.16796875 C-30.63188048 35.30883322 -34.86176387 38.3258624 -39.125 41.3125 C-47.30011494 47.04407852 -55.39898131 52.87594041 -63.48388672 58.73388672 C-67.23644794 61.45148169 -70.9934125 64.16297486 -74.75 66.875 C-79.29779486 70.15888543 -83.84509379 73.44345048 -88.390625 76.73046875 C-95.72333833 82.03182231 -103.06361844 87.32155437 -110.43164062 92.57373047 C-118.23061546 98.13774195 -125.98708119 103.76086232 -133.75 109.375 C-136.8330022 111.60462512 -139.91627049 113.83388089 -143 116.0625 C-143.75031494 116.60479248 -144.50062988 117.14708496 -145.27368164 117.70581055 C-149.81686958 120.98675317 -154.37240661 124.24963268 -158.9375 127.5 C-164.01667369 131.12287587 -169.07997704 134.76719957 -174.125 138.4375 C-174.78653076 138.91525879 -175.44806152 139.39301758 -176.12963867 139.88525391 C-177.68829563 141.02354517 -179.22202244 142.19584645 -180.75 143.375 C-180.75 143.705 -180.75 144.035 -180.75 144.375 C-167.59849885 145.77622539 -155.59152538 146.90047681 -144.8125 138.25 C-142.50569396 136.32392894 -140.24639311 134.36042878 -138.01220703 132.35058594 C-134.28484611 129.09548076 -130.26425605 126.2621812 -126.25 123.375 C-124.66517853 122.21035565 -123.08184328 121.04368619 -121.5 119.875 C-93 98.875 -64.5 77.875 -36 56.875 C-35.21512207 56.29645264 -34.43024414 55.71790527 -33.62158203 55.12182617 C-32.05047718 53.9646041 -30.47854688 52.80850178 -28.90576172 51.65356445 C-24.75259567 48.60144025 -20.6188309 45.52668895 -16.5078125 42.41796875 C-15.64865234 41.77279297 -14.78949219 41.12761719 -13.90429688 40.46289062 C-12.25701054 39.22519981 -10.61479139 37.98072666 -8.97851562 36.72851562 C-8.23537109 36.17228516 -7.49222656 35.61605469 -6.7265625 35.04296875 C-6.07768066 34.55078857 -5.42879883 34.0586084 -4.76025391 33.55151367 C-2.38390852 32.16074267 -0.48740562 31.63650743 2.25 31.375 C4.94921875 33.0078125 4.94921875 33.0078125 7.9375 35.5 C9.08879842 36.43518896 10.24258417 37.36732159 11.3984375 38.296875 C12.01686523 38.79767578 12.63529297 39.29847656 13.27246094 39.81445312 C16.77980687 42.58222537 20.42611507 45.15563602 24.0625 47.75 C29.81683995 51.87829748 35.53208355 56.04962328 41.1875 60.3125 C49.35479572 66.46850754 57.58655723 72.53470138 65.82666016 78.59277344 C69.80322518 81.51730746 73.77646271 84.44635433 77.75 87.375 C79.33331696 88.54168888 80.91665031 89.70835553 82.5 90.875 C111 111.875 111 111.875 113.37695312 113.62646484 C114.95374329 114.78829315 116.53056599 115.9500773 118.10742188 117.11181641 C128.41705548 124.70760312 128.41705548 124.70760312 132.77954102 127.93310547 C134.41465245 129.13564517 136.05572024 130.3301314 137.70288086 131.51611328 C140.99460365 133.89526912 144.05978907 136.18942836 146.97265625 139.03125 C151.45875253 143.28517769 155.56412497 144.76911266 161.6953125 144.8515625 C162.87859131 144.86977051 164.06187012 144.88797852 165.28100586 144.90673828 C170.61208833 144.86046461 175.92765683 144.68044294 181.25 144.375 C177.17411974 140.00856193 172.67980267 136.63122979 167.8125 133.1875 C167.01263672 132.61580078 166.21277344 132.04410156 165.38867188 131.45507812 C163.01207903 129.75751181 160.63135823 128.06587191 158.25 126.375 C156.46695183 125.10308321 154.68495963 123.82969997 152.90307617 122.55615234 C151.79295858 121.76295357 150.68243827 120.97031816 149.5715332 120.17822266 C140.98988888 114.05739207 132.45919939 107.86548884 123.91796875 101.68847656 C116.37417934 96.23349271 108.83062703 90.77872803 101.25 85.375 C92.10706385 78.85760504 83.01607414 72.26822028 73.91796875 65.68847656 C65.81711227 59.83067236 57.712408 53.97919561 49.57055664 48.1784668 C45.61074004 45.35455641 41.66644344 42.50979586 37.72705078 39.6574707 C30.79600547 34.63989056 23.85203079 29.64098792 16.875 24.6875 C15.81381958 23.92977295 15.81381958 23.92977295 14.73120117 23.15673828 C14.06967041 22.68864746 13.40813965 22.22055664 12.7265625 21.73828125 C12.14986816 21.32876221 11.57317383 20.91924316 10.97900391 20.49731445 C-3.35202193 11.19489624 -15.26151152 23.63911216 -26.48046875 32.16796875 Z M-215.75 48.375 C-215.75 53.655 -215.75 58.935 -215.75 64.375 C-200.93700791 64.677572 -186.12449056 64.90874982 -171.30905342 65.04855824 C-164.42777617 65.11523822 -157.54846853 65.20591747 -150.66845703 65.35571289 C-144.01566799 65.50049047 -137.36533536 65.57491277 -130.71090317 65.60840416 C-128.185566 65.63223669 -125.66032745 65.67877553 -123.13586807 65.74949074 C-106.49605501 66.1966314 -95.80503517 64.39081707 -83.3123455 52.88878918 C-81.77594822 51.40014178 -80.26271076 49.88771076 -78.75 48.375 C-123.96 48.375 -169.17 48.375 -215.75 48.375 Z M79.25 48.375 C90.73652033 59.86152033 99.64525359 65.62525899 116.29199886 65.76674271 C119.95817215 65.73369179 123.62009775 65.64143957 127.28515625 65.546875 C129.86156734 65.5244471 132.43803019 65.50738753 135.01451111 65.49542236 C141.0573201 65.45458941 147.09704631 65.36044916 153.13870472 65.23922849 C160.02855043 65.10405698 166.91853918 65.03886433 173.80938542 64.97888327 C187.95772022 64.85419609 202.10366784 64.641309 216.25 64.375 C216.25 59.095 216.25 53.815 216.25 48.375 C171.04 48.375 125.83 48.375 79.25 48.375 Z M-4.43359375 53.9453125 C-5.18640625 54.50476562 -5.93921875 55.06421875 -6.71484375 55.640625 C-7.93880859 56.56101562 -7.93880859 56.56101562 -9.1875 57.5 C-10.92568836 58.79439558 -12.66397221 60.08866294 -14.40234375 61.3828125 C-15.73821533 62.38103027 -15.73821533 62.38103027 -17.10107422 63.39941406 C-21.13724085 66.40961318 -25.19382146 69.39185543 -29.25 72.375 C-30.83344808 73.54151092 -32.41678101 74.70817817 -34 75.875 C-49.83333333 87.54166667 -65.66666667 99.20833333 -81.5 110.875 C-82.28439453 111.4529834 -83.06878906 112.0309668 -83.87695312 112.62646484 C-85.45374329 113.78829315 -87.03056599 114.9500773 -88.60742188 116.11181641 C-92.66613927 119.10214107 -96.72421743 122.0933273 -100.78125 125.0859375 C-101.60778076 125.69542236 -102.43431152 126.30490723 -103.28588867 126.93286133 C-104.90609518 128.12766932 -106.52605679 129.32280947 -108.14575195 130.51831055 C-113.40383058 134.39563672 -118.68891272 138.23137339 -124.01171875 142.01953125 C-124.58535156 142.46683594 -125.15898437 142.91414063 -125.75 143.375 C-125.75 143.705 -125.75 144.035 -125.75 144.375 C-42.59 144.375 40.57 144.375 126.25 144.375 C123.57317301 141.69817301 121.35451052 139.58722751 118.37109375 137.4140625 C117.62472656 136.8675 116.87835938 136.3209375 116.109375 135.7578125 C114.91054688 134.88769531 114.91054688 134.88769531 113.6875 134 C111.96738121 132.74227873 110.24733101 131.48446363 108.52734375 130.2265625 C107.64933105 129.5862207 106.77131836 128.94587891 105.86669922 128.28613281 C101.81795642 125.32909245 97.78433366 122.35165106 93.75 119.375 C92.16674861 118.20822213 90.58341503 117.04155579 89 115.875 C41.5 80.875 41.5 80.875 39.12207031 79.12280273 C37.54855175 77.96339358 35.97498454 76.80405046 34.40136719 75.64477539 C30.29245361 72.61762576 26.18454784 69.58912149 22.078125 66.55859375 C21.22798828 65.93146484 20.37785156 65.30433594 19.50195312 64.65820312 C17.88575153 63.46592326 16.26984507 62.27324319 14.65429688 61.08007812 C13.2027015 60.00947891 11.74965261 58.94084671 10.29492188 57.87451172 C8.93315566 56.8759482 7.57505602 55.87236487 6.22070312 54.86376953 C0.88399303 50.90272525 0.88399303 50.90272525 -4.43359375 53.9453125 Z M-199.75 80.375 C-199.75 98.525 -199.75 116.675 -199.75 135.375 C-196.97809419 133.98904709 -194.74827704 132.76913833 -192.2734375 131.01171875 C-191.28162476 130.30994507 -191.28162476 130.30994507 -190.26977539 129.59399414 C-189.56199951 129.08860107 -188.85422363 128.58320801 -188.125 128.0625 C-187.37790771 127.53197021 -186.63081543 127.00144043 -185.86108398 126.45483398 C-178.21643756 121.01646233 -170.6132096 115.52061582 -163.01611328 110.01611328 C-160.01074021 107.83963 -157.00247613 105.66716493 -153.99389648 103.49511719 C-152.50747457 102.42190472 -151.02130582 101.34834152 -149.53540039 100.27441406 C-145.59019804 97.42329584 -141.64131763 94.57744272 -137.6875 91.73828125 C-136.86121094 91.14402344 -136.03492188 90.54976562 -135.18359375 89.9375 C-133.59352208 88.79407768 -132.00241933 87.65208747 -130.41015625 86.51171875 C-129.69730469 85.99867187 -128.98445313 85.485625 -128.25 84.95703125 C-127.30640625 84.27991089 -127.30640625 84.27991089 -126.34375 83.58911133 C-124.61112759 82.32545193 -124.61112759 82.32545193 -122.75 80.375 C-148.16 80.375 -173.57 80.375 -199.75 80.375 Z M124.25 80.375 C128.48303413 84.63965923 128.48303413 84.63965923 133.04296875 88.25 C133.74647461 88.75362061 134.44998047 89.25724121 135.17480469 89.77612305 C135.92149414 90.30375244 136.66818359 90.83138184 137.4375 91.375 C139.05088173 92.52720307 140.66416002 93.67955098 142.27734375 94.83203125 C143.10089355 95.41807129 143.92444336 96.00411133 144.77294922 96.60791016 C148.69607809 99.40660982 152.59683899 102.23605858 156.5 105.0625 C162.2854891 109.2439745 168.08115179 113.41056803 173.89868164 117.54736328 C177.28568334 119.95928183 180.65395402 122.39516142 184.01171875 124.84765625 C184.82833984 125.44255859 185.64496094 126.03746094 186.48632812 126.65039062 C188.09283413 127.82166791 189.69708931 128.99604003 191.29882812 130.17382812 C192.39420898 130.97143555 192.39420898 130.97143555 193.51171875 131.78515625 C194.16100342 132.26090088 194.81028809 132.73664551 195.47924805 133.22680664 C197.35852919 134.55051377 197.35852919 134.55051377 200.25 135.375 C200.25 117.225 200.25 99.075 200.25 80.375 C175.17 80.375 150.09 80.375 124.25 80.375 Z M-213.125 164 C-215.43114285 167.37051648 -215.38491701 170.46153992 -214.75 174.375 C-213.44909804 177.39836027 -211.72404153 180.03501615 -209.875 182.75 C-209.41480469 183.46027344 -208.95460938 184.17054688 -208.48046875 184.90234375 C-206.69990221 187.62222365 -205.05451696 190.07048304 -202.75 192.375 C-199.76553298 192.69077125 -199.76553298 192.69077125 -196.18559837 192.65182209 C-195.50020774 192.65742534 -194.81481711 192.66302859 -194.10865706 192.66880164 C-191.78905255 192.68525275 -189.46965268 192.68733 -187.1499939 192.68952942 C-185.47929586 192.69827056 -183.80860208 192.70785902 -182.13791335 192.71822661 C-177.52884459 192.74415846 -172.91981264 192.75734581 -168.3106873 192.76838076 C-163.34662044 192.78232365 -158.38260837 192.8075816 -153.4185791 192.83103943 C-141.42078473 192.88489577 -129.42296679 192.91867053 -117.42509168 192.94849184 C-114.03773727 192.95699535 -110.65038435 192.96595226 -107.26303148 192.97504973 C-86.23962675 193.03125556 -65.21621562 193.08000716 -44.19275475 193.10919666 C-39.32072307 193.11607617 -34.44869153 193.12304078 -29.57666016 193.13012695 C-27.76021999 193.13275857 -27.76021999 193.13275857 -25.90708406 193.13544335 C-6.28649579 193.16510925 13.33366212 193.23944465 32.9540443 193.33195177 C53.08644787 193.42609525 73.21863045 193.47882743 93.35125291 193.49131411 C104.65971933 193.49939712 115.96749604 193.52597411 127.27574539 193.59916115 C136.90602508 193.6613997 146.5354831 193.68642765 156.16595061 193.66254155 C161.08091426 193.65151136 165.99414736 193.65838329 170.90885544 193.71317673 C175.40915974 193.76293674 179.90649419 193.76187945 184.40685658 193.7204624 C186.03415782 193.71442572 187.6616571 193.72698826 189.28863318 193.76007257 C198.28013853 194.07809373 198.28013853 194.07809373 205.94479823 189.96646631 C207.99569665 187.18557709 209.65369525 184.43434573 211.25 181.375 C211.69619363 180.71841441 212.14238727 180.06182883 212.60210192 179.38534671 C215.63474524 174.89978865 216.0075615 171.59375702 215.25 166.375 C213.06472623 163.44048951 211.57633136 161.74292144 208.01181883 160.7541334 C204.72832244 160.30338582 201.56387046 160.24824851 198.24839878 160.24636555 C197.55219393 160.24461251 196.85598907 160.24285947 196.1386871 160.24105331 C193.80041042 160.23639284 191.46219591 160.23885893 189.12391663 160.24128723 C187.43270884 160.23941929 185.74150148 160.23711865 184.05029482 160.23442191 C179.39852506 160.22829554 174.74677326 160.22843848 170.09500039 160.22961628 C165.07992724 160.22982008 160.06485989 160.22430363 155.04978943 160.21955872 C145.22321277 160.2112473 135.39664211 160.20850366 125.57006223 160.20794634 C117.58491465 160.20747146 109.59976906 160.20541815 101.61462212 160.20224571 C78.98616919 160.19343824 56.35772101 160.18882655 33.72926635 160.18957619 C32.50900152 160.18961614 31.28873669 160.1896561 30.03149414 160.18969727 C28.80974345 160.18973815 27.58799277 160.18977903 26.32921933 160.18982115 C6.52014538 160.19022777 -13.28890959 160.18065435 -33.09797805 160.1665589 C-53.42708975 160.15220726 -73.75619219 160.14528803 -94.08530909 160.14615268 C-105.50292008 160.14648504 -116.92051116 160.14372074 -128.3381176 160.13297462 C-138.05747796 160.12388562 -147.77680936 160.12168121 -157.49617212 160.12848405 C-162.45684819 160.1317572 -167.41746866 160.13177733 -172.3781395 160.1231308 C-176.91737551 160.11530004 -181.45651153 160.116662 -185.99574501 160.12541493 C-187.63970264 160.12695749 -189.28366761 160.1251055 -190.92761659 160.11955485 C-193.15938531 160.1125173 -195.39080105 160.11777052 -197.62255764 160.12611103 C-199.48329864 160.12578498 -199.48329864 160.12578498 -201.38163036 160.12545234 C-205.87909967 160.45865002 -209.39770811 161.44974766 -213.125 164 Z M-183.75 208.375 C-183.75 221.575 -183.75 234.775 -183.75 248.375 C-181.77 250.025 -179.79 251.675 -177.75 253.375 C-169.12351224 263.67416186 -167.75547134 274.30130321 -168.53857422 287.31933594 C-169.00269805 291.83194871 -170.48334331 295.49029915 -172.75 299.375 C-173.22050781 300.18582031 -173.69101563 300.99664062 -174.17578125 301.83203125 C-178.03420946 308.00352237 -178.03420946 308.00352237 -181.32324219 309.71044922 C-185.35381799 314.13597279 -184.36170533 319.25589877 -184.23828125 325.015625 C-184.23120651 326.25294373 -184.22413177 327.49026245 -184.21684265 328.76507568 C-184.19360174 332.04697726 -184.14871955 335.32764431 -184.09332275 338.60913086 C-184.0420777 341.96065901 -184.01974425 345.31224022 -183.99414062 348.6640625 C-183.94324769 355.23535817 -183.84539134 361.80359635 -183.75 368.375 C-173.19 368.375 -162.63 368.375 -151.75 368.375 C-151.75 326.135 -151.75 283.895 -151.75 240.375 C-130.63 240.375 -109.51 240.375 -87.75 240.375 C-87.75 282.615 -87.75 324.855 -87.75 368.375 C-82.47 368.375 -77.19 368.375 -71.75 368.375 C-71.75 326.135 -71.75 283.895 -71.75 240.375 C-50.63 240.375 -29.51 240.375 -7.75 240.375 C-7.75 282.615 -7.75 324.855 -7.75 368.375 C-2.47 368.375 2.81 368.375 8.25 368.375 C8.25 326.135 8.25 283.895 8.25 240.375 C29.37 240.375 50.49 240.375 72.25 240.375 C72.25 282.615 72.25 324.855 72.25 368.375 C77.53 368.375 82.81 368.375 88.25 368.375 C88.25 326.135 88.25 283.895 88.25 240.375 C109.37 240.375 130.49 240.375 152.25 240.375 C152.25 282.615 152.25 324.855 152.25 368.375 C162.81 368.375 173.37 368.375 184.25 368.375 C184.38775183 360.48998306 184.50719929 352.60913858 184.57958984 344.72387695 C184.60637723 342.04148556 184.64812152 339.35994627 184.70263672 336.67797852 C184.77541572 332.82283184 184.80945182 328.96898948 184.8359375 325.11328125 C184.86690521 323.91415604 184.89787292 322.71503082 184.92977905 321.47956848 C185.12768183 315.69178987 185.12768183 315.69178987 182.93736267 310.5519104 C181.16600325 309.01022033 181.16600325 309.01022033 178.25 307.375 C169.62638246 297.0792649 168.2659022 286.48315224 169.04736328 273.47363281 C169.95237815 264.10073182 174.8834795 257.05527099 181.25 250.375 C182.24 249.715 183.23 249.055 184.25 248.375 C184.25 235.175 184.25 221.975 184.25 208.375 C62.81 208.375 -58.63 208.375 -183.75 208.375 Z M-135.75 256.375 C-135.75 293.335 -135.75 330.295 -135.75 368.375 C-125.19 368.375 -114.63 368.375 -103.75 368.375 C-103.75 331.415 -103.75 294.455 -103.75 256.375 C-114.31 256.375 -124.87 256.375 -135.75 256.375 Z M-55.75 256.375 C-55.75 293.335 -55.75 330.295 -55.75 368.375 C-45.19 368.375 -34.63 368.375 -23.75 368.375 C-23.75 331.415 -23.75 294.455 -23.75 256.375 C-34.31 256.375 -44.87 256.375 -55.75 256.375 Z M24.25 256.375 C24.25 293.335 24.25 330.295 24.25 368.375 C34.81 368.375 45.37 368.375 56.25 368.375 C56.25 331.415 56.25 294.455 56.25 256.375 C45.69 256.375 35.13 256.375 24.25 256.375 Z M104.25 256.375 C104.25 293.335 104.25 330.295 104.25 368.375 C114.81 368.375 125.37 368.375 136.25 368.375 C136.25 331.415 136.25 294.455 136.25 256.375 C125.69 256.375 115.13 256.375 104.25 256.375 Z M-227.5234375 267.53125 C-231.45554427 273.44193278 -231.44863277 279.49615424 -230.75 286.375 C-228.97657567 293.01972914 -224.3033353 297.54867959 -218.75 301.375 C-212.75112996 304.31562257 -205.8671647 304.47383788 -199.4375 302.7578125 C-193.30867139 300.05250925 -188.51047208 294.96636305 -185.578125 288.984375 C-183.67194143 282.97809848 -183.68561313 275.87208442 -186.25 270.0625 C-189.73037258 264.12976525 -195.1856193 259.44336256 -201.75 257.375 C-213.47394962 255.94891138 -220.05742361 258.68882015 -227.5234375 267.53125 Z M188.4765625 267.53125 C184.54445573 273.44193278 184.55136723 279.49615424 185.25 286.375 C187.02342433 293.01972914 191.6966647 297.54867959 197.25 301.375 C203.24887004 304.31562257 210.1328353 304.47383788 216.5625 302.7578125 C222.69132861 300.05250925 227.48952792 294.96636305 230.421875 288.984375 C232.32805857 282.97809848 232.31438687 275.87208442 229.75 270.0625 C226.26962742 264.12976525 220.8143807 259.44336256 214.25 257.375 C202.52605038 255.94891138 195.94257639 258.68882015 188.4765625 267.53125 Z M-215.75 320.375 C-215.75 357.335 -215.75 394.295 -215.75 432.375 C-210.47 432.375 -205.19 432.375 -199.75 432.375 C-199.75 395.415 -199.75 358.455 -199.75 320.375 C-205.03 320.375 -210.31 320.375 -215.75 320.375 Z M200.25 320.375 C200.25 357.335 200.25 394.295 200.25 432.375 C205.53 432.375 210.81 432.375 216.25 432.375 C216.25 395.415 216.25 358.455 216.25 320.375 C210.97 320.375 205.69 320.375 200.25 320.375 Z M-183.75 384.375 C-183.75 389.655 -183.75 394.935 -183.75 400.375 C-62.31 400.375 59.13 400.375 184.25 400.375 C184.25 395.095 184.25 389.815 184.25 384.375 C62.81 384.375 -58.63 384.375 -183.75 384.375 Z M-183.75 416.375 C-183.75 421.655 -183.75 426.935 -183.75 432.375 C-62.31 432.375 59.13 432.375 184.25 432.375 C184.25 427.095 184.25 421.815 184.25 416.375 C62.81 416.375 -58.63 416.375 -183.75 416.375 Z M-229.75 451.375 C-233.23556271 459.1913793 -233.23556271 459.1913793 -231.75 480.375 C-78.63 480.375 74.49 480.375 232.25 480.375 C234.03885438 458.83467478 234.03885438 458.83467478 229.25 450.375 C225.30361746 447.9511529 221.1625087 448.09237047 216.6549387 448.12052441 C215.89457564 448.11731793 215.13421259 448.11411145 214.35080823 448.11080781 C211.79422577 448.10248388 209.23787612 448.10844043 206.68128967 448.11430359 C204.83333842 448.111284 202.98538841 448.10739549 201.13744062 448.10271102 C196.05239454 448.09239752 190.96741871 448.09462136 185.88236678 448.09889162 C180.40102663 448.10135276 174.91970366 448.09235233 169.43836975 448.08485413 C158.69737601 448.07208823 147.95640725 448.07031577 137.2154072 448.07265439 C128.48750392 448.07443553 119.75960823 448.07269231 111.03170586 448.06842995 C109.79075381 448.06783476 108.54980176 448.06723957 107.2712451 448.06662634 C104.75047116 448.06541463 102.22969722 448.06420049 99.70892327 448.06298397 C82.77740706 448.05519383 65.84589397 448.05127969 48.91437626 448.05530071 C48.25213625 448.05545709 47.58989625 448.05561346 46.90758836 448.05577458 C43.55101619 448.05658037 40.19444402 448.05742615 36.83787186 448.05828788 C35.83791473 448.05854451 35.83791473 448.05854451 34.81775644 448.05880633 C33.46965228 448.05915298 32.12154813 448.05950151 30.77344397 448.05985192 C9.79368887 448.06520995 -11.18602422 448.05727686 -32.16577148 448.03881836 C-55.73120274 448.01810925 -79.29661462 448.00740462 -102.86205679 448.01139385 C-115.34161042 448.01330887 -127.82112576 448.01078901 -140.30067253 447.99667931 C-150.9240101 447.9847901 -161.54728581 447.98333295 -172.17062419 447.99546947 C-177.59308097 448.00137535 -183.01542447 448.00241052 -188.43787384 447.99046707 C-193.39904499 447.9796664 -198.36000747 447.98264194 -203.32116861 447.99672876 C-205.1185567 447.99939178 -206.91596084 447.99695918 -208.71333324 447.98899289 C-211.15217513 447.97893145 -213.5902854 447.98727024 -216.02909756 448.00026989 C-216.730653 447.99296054 -217.43220843 447.9856512 -218.15502313 447.97812036 C-222.72973357 448.02883521 -225.94765386 448.80060294 -229.75 451.375 Z " fill="#000000" transform="translate(255.75,7.625)"/>
<path d="M0 0 C5.82485779 3.51996782 10.54466582 8.98962934 12.5625 15.5 C13.36764105 23.33608208 13.68710392 31.11922577 8.5625 37.5 C3.75801361 42.54521222 -0.59927055 46.10562995 -7.70703125 46.8359375 C-16.22326573 46.92983204 -22.11345494 46.6177288 -28.40234375 40.62890625 C-34.7841668 33.72505269 -35.91792252 28.29832071 -35.7421875 18.9453125 C-35.04689797 11.08319245 -31.38995981 6.95041296 -25.53515625 1.9453125 C-18.47077988 -2.92213491 -7.84396301 -3.47595223 0 0 Z M-16.8125 17.125 C-18.92456506 20.21186432 -19.04945145 21.8282913 -18.4375 25.5 C-16.9375 28 -16.9375 28 -14.4375 29.5 C-10.7657913 30.11195145 -9.14936432 29.98706506 -6.0625 27.875 C-3.95043494 24.78813568 -3.82554855 23.1717087 -4.4375 19.5 C-5.9375 17 -5.9375 17 -8.4375 15.5 C-12.1092087 14.88804855 -13.72563568 15.01293494 -16.8125 17.125 Z " fill="#000000" transform="translate(267.4375,89.5)"/>
</svg>
