<?xml version="1.0" encoding="UTF-8"?>
<svg version="1.1" xmlns="http://www.w3.org/2000/svg" width="512" height="512">
<path d="M0 0 C1.69832306 0.50960058 3.39698898 1.01805978 5.09597778 1.5254364 C8.63717834 2.5863657 12.17516071 3.65721952 15.7109375 4.73608398 C20.23561617 6.11638714 24.76586754 7.47717822 29.29842949 8.83134174 C32.79859589 9.87831655 36.29652415 10.93260139 39.7937355 11.98940086 C41.46377293 12.49370725 43.13428869 12.99643248 44.80529404 13.49752235 C47.13784257 14.1988215 49.46742482 14.90920816 51.79638672 15.62231445 C52.48113571 15.82659561 53.1658847 16.03087677 53.87138367 16.24134827 C57.68197171 17.42025035 60.98554534 18.77669532 64.2578125 21.07421875 C65.64090031 23.84039438 65.36991446 26.08439875 65.35546875 29.17578125 C65.35224609 30.3875 65.34902344 31.59921875 65.34570312 32.84765625 C65.33732422 34.11867187 65.32894531 35.3896875 65.3203125 36.69921875 C65.31580078 37.97796875 65.31128906 39.25671875 65.30664062 40.57421875 C65.29482453 43.74093167 65.27835065 46.90755231 65.2578125 50.07421875 C66.17143555 50.05029053 66.17143555 50.05029053 67.10351562 50.02587891 C67.90724609 50.01347168 68.71097656 50.00106445 69.5390625 49.98828125 C70.73112305 49.96435303 70.73112305 49.96435303 71.94726562 49.93994141 C75.24384947 50.13152225 77.51844389 51.29362915 80.2578125 53.07421875 C81.59001866 55.73863106 81.39289119 57.76973575 81.40498352 60.75460815 C81.41571648 62.56751846 81.41571648 62.56751846 81.42666626 64.41705322 C81.42950662 65.76354955 81.43221834 67.11004615 81.43481445 68.45654297 C81.44107818 69.86905078 81.4477249 71.28155694 81.45472717 72.69406128 C81.47214339 76.53705833 81.48269027 80.38004293 81.4909327 84.22306967 C81.49608078 86.62285803 81.50215654 89.02264251 81.50844383 91.42242813 C81.5274963 98.92743038 81.5417282 106.43242278 81.5500558 113.93744457 C81.55983422 122.60727728 81.58616907 131.27685508 81.62655669 139.94659793 C81.65668776 146.64388749 81.67152174 153.34110385 81.67483681 160.0384599 C81.67719045 164.04049361 81.68619136 168.04225501 81.71129799 172.04421616 C81.7345319 175.80846623 81.73883118 179.57226381 81.72853661 183.33656693 C81.72804001 184.71847791 81.73439698 186.10041082 81.74809265 187.48225403 C81.76573804 189.36804101 81.75634409 191.25402336 81.74555969 193.13986206 C81.74794805 194.19548277 81.7503364 195.25110348 81.75279713 196.33871269 C81.13323055 199.76271421 79.94780253 200.93931668 77.2578125 203.07421875 C75.2578125 203.60546875 75.2578125 203.60546875 73.2578125 203.57421875 C72.2678125 203.5896875 72.2678125 203.5896875 71.2578125 203.60546875 C68.33931945 202.83024403 67.16331734 201.38481617 65.2578125 199.07421875 C64.76562119 196.52053452 64.76562119 196.52053452 64.77679443 193.58197021 C64.76854645 191.90771973 64.76854645 191.90771973 64.76013184 190.199646 C64.78170349 188.36977142 64.78170349 188.36977142 64.80371094 186.50292969 C64.80312683 185.21487427 64.80254272 183.92681885 64.80194092 182.59973145 C64.80079337 179.07093176 64.82430847 175.54267607 64.85223675 172.0140028 C64.87724403 168.32513882 64.87959186 164.63626233 64.88433838 160.94732666 C64.89677019 153.96331086 64.92959439 146.97954555 64.96973634 139.99564004 C65.01444781 132.04410157 65.03643948 124.09255114 65.05651808 116.14091825 C65.09832706 99.785182 65.17168172 83.42979078 65.2578125 67.07421875 C46.7778125 65.09421875 28.2978125 63.11421875 9.2578125 61.07421875 C9.2578125 117.50421875 9.2578125 173.93421875 9.2578125 232.07421875 C32.6878125 226.13421875 56.1178125 220.19421875 80.2578125 214.07421875 C95.09619252 210.36462374 100.09398246 209.7723051 113.00390625 216.4375 C114.09623062 216.9852861 115.18855499 217.5330722 116.3139801 218.09745789 C118.61001726 219.25333985 120.90170811 220.41789145 123.18920898 221.59057617 C126.69895279 223.38858364 130.22192545 225.15819145 133.74804688 226.92382812 C135.97999227 228.05175319 138.21114123 229.18125592 140.44140625 230.3125 C141.49653915 230.84386063 142.55167206 231.37522125 143.63877869 231.92268372 C144.610616 232.42297592 145.58245331 232.92326813 146.58374023 233.4387207 C147.86872658 234.09491142 147.86872658 234.09491142 149.17967224 234.76435852 C151.2578125 236.07421875 151.2578125 236.07421875 153.2578125 239.07421875 C153.45615005 241.95082486 153.53598816 244.7309529 153.52523804 247.60826111 C153.52976915 248.49004943 153.53430026 249.37183775 153.53896868 250.28034693 C153.55166903 253.24676508 153.5499887 256.21300096 153.54833984 259.17944336 C153.55432153 261.30144997 153.56112624 263.42345439 153.56869507 265.54545593 C153.58639773 271.31810162 153.59105221 277.09068806 153.59232664 282.86335826 C153.59422298 287.67721898 153.60157735 292.49106582 153.60867083 297.30492121 C153.6249682 308.6586102 153.62983851 320.01226746 153.62841797 331.3659668 C153.62721581 343.09088311 153.64832938 354.81561556 153.6799053 366.54048532 C153.70602533 376.59658488 153.71678708 386.65262422 153.71550715 396.70875746 C153.71499631 402.71946231 153.72074697 408.7300038 153.74186325 414.74067497 C153.76117399 420.39187189 153.76141927 426.0427484 153.74682999 431.69395638 C153.74473195 433.77086986 153.74950158 435.84780303 153.7615509 437.92468262 C153.77690864 440.7545671 153.76775827 443.58333362 153.75228882 446.41319275 C153.76257594 447.23993986 153.77286307 448.06668696 153.78346193 448.91848701 C153.74331533 452.22938636 153.63941328 454.52681199 151.71747744 457.28383118 C148.35645644 459.73031489 145.40729836 459.62784686 141.40539551 459.57758331 C140.20490145 459.58630396 140.20490145 459.58630396 138.98015499 459.59520078 C136.28139019 459.6098721 133.58352475 459.59588262 130.88476562 459.58215332 C128.93725365 459.58675942 126.98974515 459.59311037 125.04224396 459.6010623 C119.677367 459.6178187 114.31277327 459.60948062 108.94789505 459.59711742 C103.16731052 459.58809501 97.3867759 459.60202267 91.60620117 459.61303711 C80.27682733 459.63085701 68.94755928 459.6269669 57.61818123 459.61538655 C48.41349542 459.60636613 39.20883934 459.60512218 30.00415039 459.60948181 C28.69587674 459.61009474 27.38760308 459.61070768 26.03968477 459.61133918 C23.38224982 459.61261804 20.72481488 459.61391489 18.06737995 459.61522955 C-6.16091398 459.62672202 -30.38915436 459.61480374 -54.61743915 459.59385916 C-76.74499039 459.57487607 -98.87244956 459.57657456 -121 459.59570312 C-145.84833458 459.61711181 -170.6966175 459.62554678 -195.54496002 459.61325407 C-198.19281514 459.61197983 -200.84067026 459.61072234 -203.48852539 459.60948181 C-205.44290126 459.60855616 -205.44290126 459.60855616 -207.43675947 459.60761181 C-216.6342031 459.60415292 -225.83161415 459.60999884 -235.02905273 459.61940002 C-246.23220226 459.63059924 -257.43523962 459.62762377 -268.63837624 459.60627705 C-274.35831503 459.59573865 -280.07806659 459.59169223 -285.79800415 459.60487366 C-291.02871417 459.61674568 -296.25906246 459.61032106 -301.48973942 459.58896345 C-303.3873868 459.58447529 -305.2850644 459.58681287 -307.18269253 459.5964666 C-309.75215981 459.60854088 -312.32037011 459.59624799 -314.88977051 459.57758331 C-316.00816991 459.59163031 -316.00816991 459.59163031 -317.14916325 459.60596108 C-320.47473216 459.55731144 -322.43861731 459.28419194 -325.20132869 457.3732819 C-327.05730567 454.60404162 -327.24410182 453.10310347 -327.24834538 449.78584385 C-327.25939306 448.70807731 -327.27044075 447.63031078 -327.28182322 446.51988465 C-327.27358245 445.33653454 -327.26534168 444.15318442 -327.2568512 442.93397522 C-327.26379672 441.67635122 -327.27074225 440.41872723 -327.27789825 439.12299341 C-327.29656817 435.62986421 -327.29020597 432.13715771 -327.27974522 428.64401066 C-327.27276539 424.87772278 -327.28874187 421.11152281 -327.30174255 417.34526062 C-327.32340852 409.96596016 -327.32324901 402.58681376 -327.31511701 395.20749194 C-327.30882241 389.21076089 -327.30994907 383.21407485 -327.31638908 377.21734428 C-327.31729074 376.3645186 -327.31819239 375.51169291 -327.31912137 374.63302402 C-327.32097254 372.9006228 -327.3228351 371.16822159 -327.32470893 369.43582039 C-327.34129654 353.18215321 -327.33256014 336.92857276 -327.31572335 320.67491078 C-327.30102649 305.79898953 -327.31565286 290.92327026 -327.34449352 276.04737503 C-327.37387389 260.77960464 -327.38486371 245.51192751 -327.37531132 230.24413007 C-327.37428874 228.51772306 -327.37329414 226.79131603 -327.3723278 225.06490898 C-327.37185141 224.21544653 -327.37137502 223.36598408 -327.3708842 222.49078034 C-327.36871821 216.50080175 -327.37853396 210.51091127 -327.39309883 204.52095222 C-327.41059946 197.22167128 -327.4105377 189.92264787 -327.38774718 182.62337715 C-327.37658392 178.89810697 -327.37348886 175.17329088 -327.39204788 171.44804001 C-327.41189607 167.41213278 -327.39311526 163.37733752 -327.37037659 159.34144592 C-327.38221232 158.16032653 -327.39404804 156.97920714 -327.40624243 155.76229626 C-327.31512278 147.83740236 -327.31512278 147.83740236 -324.37701321 143.92366695 C-321.59846846 141.97333886 -318.84281956 140.15065446 -315.89453125 138.46484375 C-315.33416168 138.14088623 -314.77379211 137.81692871 -314.19644165 137.4831543 C-312.99039186 136.78674868 -311.78235966 136.09376686 -310.57254028 135.40393066 C-307.30442163 133.53974626 -304.0515891 131.64917637 -300.796875 129.76171875 C-299.79216911 129.18034149 -299.79216911 129.18034149 -298.76716614 128.58721924 C-292.47731307 124.93989974 -286.25818942 121.18160444 -280.0536499 117.39144897 C-278.30987 116.32738115 -276.56378971 115.26719643 -274.81689453 114.20825195 C-269.32735547 110.87880296 -263.85565868 107.52458197 -258.4140625 104.1171875 C-256.46117827 102.91497338 -254.50806615 101.71312935 -252.5546875 100.51171875 C-251.68851807 99.95709961 -250.82234863 99.40248047 -249.92993164 98.83105469 C-249.11129639 98.33250977 -248.29266113 97.83396484 -247.44921875 97.3203125 C-246.40471558 96.66567017 -246.40471558 96.66567017 -245.33911133 95.99780273 C-237.57360523 93.2360363 -230.42958664 95.80433983 -223.03125 98.546875 C-222.02363617 98.90760605 -221.01602234 99.2683371 -219.97787476 99.63999939 C-216.76933891 100.79229411 -213.56836137 101.96414796 -210.3671875 103.13671875 C-208.25697582 103.89777604 -206.14630174 104.65755253 -204.03515625 105.41601562 C-191.57973602 109.90152102 -179.15855658 114.48187568 -166.7421875 119.07421875 C-166.75106995 118.48175354 -166.75995239 117.88928833 -166.769104 117.27886963 C-166.85757046 111.11472213 -166.91791876 104.95075482 -166.96191406 98.78613281 C-166.98203438 96.48527706 -167.00933384 94.18447246 -167.04394531 91.88378906 C-167.09244362 88.57734558 -167.11515228 85.2715779 -167.1328125 81.96484375 C-167.15345764 80.93554749 -167.17410278 79.90625122 -167.19537354 78.84576416 C-167.19760832 71.73958534 -167.19760832 71.73958534 -164.95214844 68.45898438 C-161.74404471 66.44878063 -158.42148871 65.89077781 -154.7421875 65.32421875 C-154.030625 65.19917969 -153.3190625 65.07414062 -152.5859375 64.9453125 C-149.24173924 64.3775475 -146.14352946 64.07421875 -142.7421875 64.07421875 C-142.76313477 62.8531543 -142.78408203 61.63208984 -142.80566406 60.37402344 C-142.87808909 55.84175351 -142.92399638 51.30953468 -142.96191406 46.77685547 C-142.98202382 44.81550494 -143.00931568 42.85421431 -143.04394531 40.89306641 C-143.09249171 38.0730918 -143.11516236 35.2539101 -143.1328125 32.43359375 C-143.15345764 31.55741394 -143.17410278 30.68123413 -143.19537354 29.77850342 C-143.19567566 28.95795471 -143.19597778 28.13740601 -143.19628906 27.29199219 C-143.20517151 26.57251404 -143.21405396 25.85303589 -143.22320557 25.11175537 C-142.50564093 22.07223495 -141.20100936 20.96834594 -138.7421875 19.07421875 C-135.59535217 18.02062988 -135.59535217 18.02062988 -131.83227539 17.23242188 C-131.14429052 17.08373154 -130.45630566 16.9350412 -129.74747276 16.78184509 C-127.46847075 16.29251926 -125.18566483 15.82418827 -122.90234375 15.35546875 C-121.2867069 15.01231501 -119.67140108 14.66759947 -118.05641174 14.32141113 C-114.66613969 13.59608087 -111.27444818 12.8779805 -107.88165283 12.16455078 C-100.51583408 10.60968393 -93.17081207 8.96188678 -85.8228569 7.32516479 C-81.02226353 6.25934244 -76.21806361 5.20994469 -71.41405296 4.15965271 C-67.34485684 3.26957721 -63.27676378 2.37496038 -59.21069336 1.47070312 C-55.15781098 0.56954727 -51.10258993 -0.32027827 -47.04551888 -1.20237732 C-45.53258519 -1.53329596 -44.02049343 -1.86809284 -42.50936699 -2.20716858 C-26.79096339 -5.72886005 -15.33935599 -4.70358737 0 0 Z M-44.34033203 15.80249023 C-45.1945575 15.98620178 -46.04878296 16.16991333 -46.92889404 16.35919189 C-49.74536518 16.96625183 -52.56017421 17.58067247 -55.375 18.1953125 C-57.3335617 18.61930359 -59.2922117 19.04288695 -61.25094604 19.46607971 C-65.35206697 20.35323827 -69.45243686 21.24376256 -73.55224609 22.13696289 C-78.81166131 23.28274951 -84.07234361 24.42258027 -89.33352852 25.56021023 C-94.34781811 26.64476508 -99.3614174 27.73249508 -104.375 28.8203125 C-105.8132633 29.13189206 -105.8132633 29.13189206 -107.28058243 29.44976616 C-109.9883866 30.03692979 -112.69568385 30.62637302 -115.40283203 31.21655273 C-116.20705597 31.39062149 -117.01127991 31.56469025 -117.83987427 31.74403381 C-120.86496025 32.40556479 -123.80198421 33.09415099 -126.7421875 34.07421875 C-126.7421875 43.31421875 -126.7421875 52.55421875 -126.7421875 62.07421875 C-114.5201101 60.26974949 -102.29846886 58.46239629 -90.07757759 56.64991093 C-84.40338546 55.80848817 -78.72900937 54.96834888 -73.05419922 54.13110352 C-67.58136984 53.32361023 -62.10904188 52.51279691 -56.63705063 51.69964409 C-54.545568 51.38944756 -52.45390519 51.08046347 -50.36206436 50.77269173 C-47.44027655 50.34260202 -44.51914953 49.90827024 -41.59814453 49.47290039 C-40.72636566 49.34558533 -39.85458679 49.21827026 -38.95639038 49.08709717 C-34.72167541 48.52381198 -34.72167541 48.52381198 -30.7421875 47.07421875 C-30.7421875 36.18421875 -30.7421875 25.29421875 -30.7421875 14.07421875 C-35.53051834 14.07421875 -39.70796827 14.78305538 -44.34033203 15.80249023 Z M-14.7421875 14.07421875 C-14.7421875 24.30421875 -14.7421875 34.53421875 -14.7421875 45.07421875 C-10.7821875 44.57921875 -10.7821875 44.57921875 -6.7421875 44.07421875 C-3.98165726 43.9586226 -1.25929008 43.88360368 1.5 43.88671875 C2.65566971 43.88792725 2.65566971 43.88792725 3.83468628 43.88916016 C13.07837003 43.98388978 22.20848 45.0196571 31.3828125 46.07421875 C33.13141159 46.26782177 34.88010955 46.46053393 36.62890625 46.65234375 C40.83974571 47.11609999 45.04908567 47.59168138 49.2578125 48.07421875 C49.2578125 43.12421875 49.2578125 38.17421875 49.2578125 33.07421875 C42.3937569 31.01001421 35.52932204 28.94707719 28.66455078 26.88525391 C26.33502204 26.18539687 24.00559271 25.48520887 21.67626953 24.78466797 C18.30528175 23.77091317 14.93392413 22.7583963 11.5625 21.74609375 C10.54106903 21.4386322 9.51963806 21.13117065 8.46725464 20.81439209 C0.74817122 18.49855045 -6.99130349 16.28875704 -14.7421875 14.07421875 Z M-16.53814697 61.87145996 C-17.7216272 62.0481572 -18.90510742 62.22485443 -20.12445068 62.40690613 C-21.41917297 62.60327164 -22.71389526 62.79963715 -24.04785156 63.00195312 C-25.42769655 63.20909915 -26.80758038 63.41598663 -28.1875 63.62263489 C-31.9313441 64.18403931 -35.6746343 64.74906131 -39.41783619 65.31472969 C-43.33063074 65.90539886 -47.24392386 66.49274603 -51.15716553 67.08044434 C-58.5664079 68.19369577 -65.97519643 69.30993817 -73.38382697 70.42725325 C-81.81871974 71.69919287 -90.25411243 72.9678013 -98.68954897 74.23612881 C-116.04098833 76.84511675 -133.3917266 79.45873117 -150.7421875 82.07421875 C-150.7421875 96.26421875 -150.7421875 110.45421875 -150.7421875 125.07421875 C-145.4621875 127.05421875 -140.1821875 129.03421875 -134.7421875 131.07421875 C-133.0921875 131.73421875 -131.4421875 132.39421875 -129.7421875 133.07421875 C-128.7521875 133.07421875 -127.7621875 133.07421875 -126.7421875 133.07421875 C-126.72760498 132.18114014 -126.71302246 131.28806152 -126.69799805 130.36791992 C-126.63691673 127.05204597 -126.56276272 123.73699976 -126.47973633 120.42163086 C-126.44649749 118.98717247 -126.41846215 117.55258362 -126.39575195 116.11791992 C-126.36218479 114.05461068 -126.30987337 111.99249572 -126.25390625 109.9296875 C-126.22772217 108.68856201 -126.20153809 107.44743652 -126.17456055 106.16870117 C-125.7421875 103.07421875 -125.7421875 103.07421875 -124.33129883 101.1706543 C-122.34549771 99.80051559 -121.14174097 99.6719511 -118.7421875 99.69921875 C-117.72125 99.68761719 -117.72125 99.68761719 -116.6796875 99.67578125 C-114.0058729 100.22563829 -113.33759042 100.82894933 -111.7421875 103.07421875 C-111.41109227 105.86562637 -111.25361072 108.44638563 -111.23046875 111.2421875 C-111.21251755 112.03700027 -111.19456635 112.83181305 -111.17607117 113.65071106 C-111.1219178 116.18765976 -111.08805722 118.72441982 -111.0546875 121.26171875 C-111.02151876 122.98244816 -110.98702951 124.70315265 -110.95117188 126.42382812 C-110.86618877 130.64048897 -110.79940208 134.85709339 -110.7421875 139.07421875 C-109.91074219 139.40035156 -109.07929688 139.72648437 -108.22265625 140.0625 C-107.13597656 140.49949219 -106.04929688 140.93648438 -104.9296875 141.38671875 C-103.31126953 142.03060547 -103.31126953 142.03060547 -101.66015625 142.6875 C-98.94188798 143.97931424 -97.60293297 144.78969519 -95.7421875 147.07421875 C-95.44162478 149.99773502 -95.32640972 152.70981945 -95.34346008 155.63517761 C-95.33681326 156.5197882 -95.33016643 157.40439878 -95.32331818 158.31581575 C-95.30460736 161.29163279 -95.3072989 164.26705061 -95.30981445 167.24291992 C-95.30080223 169.37142 -95.29047635 171.49991487 -95.27893066 173.62840271 C-95.25127119 179.41731021 -95.24206401 185.20611948 -95.23607659 190.99508452 C-95.22671617 197.04097777 -95.20051474 203.08679696 -95.17607117 209.13264465 C-95.13233818 220.58605394 -95.103833 232.03944892 -95.08074778 243.49291641 C-95.05373252 256.53026528 -95.00981879 269.56753992 -94.96445906 282.60483587 C-94.8715154 309.42792329 -94.79987922 336.25103399 -94.7421875 363.07421875 C-93.99716476 363.08008499 -93.25214203 363.08595123 -92.48454285 363.09199524 C-85.46565961 363.14988314 -78.44709853 363.22193688 -71.42853832 363.30993366 C-67.82013873 363.35467426 -64.21185299 363.3939218 -60.60327148 363.4206543 C-57.12119165 363.44665116 -53.63954911 363.4870267 -50.15773964 363.53740501 C-48.18193551 363.56222639 -46.2059623 363.57212814 -44.23002625 363.5818634 C-43.02900772 363.60165756 -41.8279892 363.62145172 -40.59057617 363.6418457 C-39.53134445 363.65294876 -38.47211273 363.66405182 -37.38078308 363.67549133 C-34.7421875 364.07421875 -34.7421875 364.07421875 -32.90158367 365.39836597 C-31.00082884 368.14581792 -31.30320253 371.16682706 -31.30981445 374.39135742 C-31.2996228 375.13306686 -31.28943115 375.87477631 -31.27893066 376.63896179 C-31.24874087 379.09011326 -31.23952587 381.54087434 -31.23046875 383.9921875 C-31.21362645 385.69185186 -31.19547682 387.39150372 -31.17607117 389.09114075 C-31.12851608 393.56436256 -31.09874248 398.03753375 -31.07263184 402.51092529 C-31.04285401 407.07574464 -30.99631419 411.64038943 -30.95117188 416.20507812 C-30.86507598 425.16138724 -30.79930789 434.11767791 -30.7421875 443.07421875 C-22.8221875 443.07421875 -14.9021875 443.07421875 -6.7421875 443.07421875 C-6.7421875 317.01421875 -6.7421875 190.95421875 -6.7421875 61.07421875 C-10.16939086 61.07421875 -13.16465033 61.36362176 -16.53814697 61.87145996 Z M-230.7421875 115.07421875 C-230.7421875 127.28421875 -230.7421875 139.49421875 -230.7421875 152.07421875 C-222.07454184 154.38559093 -213.4492787 156.68403441 -204.72363281 158.73144531 C-203.73139709 158.96611511 -202.73916138 159.20078491 -201.71685791 159.44256592 C-198.50187119 160.20225205 -195.28613993 160.95872501 -192.0703125 161.71484375 C-189.81204993 162.24711591 -187.55381059 162.77948661 -185.29559326 163.31195068 C-180.59617945 164.41943907 -175.89636967 165.52522782 -171.19628906 166.62988281 C-165.16622822 168.04734666 -159.13738621 169.46992309 -153.10884476 170.89383316 C-148.4615499 171.99077106 -143.81353657 173.0846389 -139.16530609 174.17760468 C-136.94024851 174.70126854 -134.71543915 175.22598827 -132.49088287 175.75177765 C-129.39733015 176.48256169 -126.30281445 177.2091177 -123.20800781 177.93457031 C-122.28858398 178.15270386 -121.36916016 178.3708374 -120.421875 178.59558105 C-119.58118469 178.79174011 -118.74049438 178.98789917 -117.87432861 179.19000244 C-117.1443932 179.36179142 -116.41445778 179.5335804 -115.66240311 179.7105751 C-113.57664337 180.16725341 -113.57664337 180.16725341 -110.7421875 180.07421875 C-110.7421875 172.48421875 -110.7421875 164.89421875 -110.7421875 157.07421875 C-129.66029572 150.28468562 -148.58630078 143.51911499 -167.5546875 136.87109375 C-168.18154009 136.6513665 -168.80839268 136.43163925 -169.4542408 136.2052536 C-176.27798361 133.81370418 -183.10310672 131.42612942 -189.92944336 129.04199219 C-192.25124429 128.23011783 -194.57294268 127.41795016 -196.89453125 126.60546875 C-198.55596413 126.02421234 -198.55596413 126.02421234 -200.2509613 125.43121338 C-207.93024717 122.73500402 -215.57758941 119.96061398 -223.18943787 117.07922363 C-226.86373006 115.59815042 -226.86373006 115.59815042 -230.7421875 115.07421875 Z M-253.85546875 121.6328125 C-254.8058905 122.19683273 -254.8058905 122.19683273 -255.7755127 122.77224731 C-257.87000309 124.01634669 -259.96242329 125.26387964 -262.0546875 126.51171875 C-263.49762188 127.37039173 -264.94057452 128.22903403 -266.38354492 129.08764648 C-276.1329766 134.89486462 -285.85494919 140.74690482 -295.5546875 146.63671875 C-296.45509262 147.18330643 -296.45509262 147.18330643 -297.37368774 147.74093628 C-304.11717094 151.81407019 -304.11717094 151.81407019 -310.7421875 156.07421875 C-311.15828022 158.39722259 -311.15828022 158.39722259 -311.03515625 161.08203125 C-311.02548828 162.06816406 -311.01582031 163.05429688 -311.00585938 164.0703125 C-310.98072266 165.10285156 -310.95558594 166.13539063 -310.9296875 167.19921875 C-310.91615234 168.23949219 -310.90261719 169.27976563 -310.88867188 170.3515625 C-310.85323978 172.92629502 -310.80383971 175.50000205 -310.7421875 178.07421875 C-306.89447122 177.42124226 -303.49073227 176.30383638 -299.86621094 174.86523438 C-298.70861267 174.4080603 -297.5510144 173.95088623 -296.3583374 173.4798584 C-295.10601203 172.98022992 -293.85375533 172.48042931 -292.6015625 171.98046875 C-291.31084735 171.46833202 -290.020013 170.95649563 -288.72906494 170.44494629 C-286.03152791 169.37497115 -283.33516207 168.30211284 -280.63964844 167.22705078 C-277.17898112 165.84696932 -273.71592561 164.47300378 -270.25204086 163.10102081 C-267.59019222 162.04616533 -264.92939143 160.98868867 -262.26892853 159.93034363 C-260.99171152 159.42250207 -259.71422034 158.91534952 -258.43645477 158.40888977 C-256.6568037 157.70291381 -254.87865483 156.99315453 -253.10058594 156.28320312 C-252.0875238 155.87984741 -251.07446167 155.4764917 -250.03070068 155.06091309 C-247.81944939 154.27460344 -247.81944939 154.27460344 -246.7421875 153.07421875 C-246.65367221 150.48062553 -246.62692805 147.91382184 -246.64453125 145.3203125 C-246.6459462 144.54486588 -246.64736115 143.76941925 -246.64881897 142.97047424 C-246.65443405 140.48418381 -246.66698904 137.99798215 -246.6796875 135.51171875 C-246.68470056 133.83007942 -246.6892638 132.14843869 -246.69335938 130.46679688 C-246.70440837 126.33590309 -246.72168305 122.20507599 -246.7421875 118.07421875 C-249.13520107 118.07421875 -251.79983556 120.40593032 -253.85546875 121.6328125 Z M-230.7421875 170.07421875 C-230.7421875 182.61421875 -230.7421875 195.15421875 -230.7421875 208.07421875 C-222.07454184 210.38559093 -213.4492787 212.68403441 -204.72363281 214.73144531 C-203.73139709 214.96611511 -202.73916138 215.20078491 -201.71685791 215.44256592 C-198.50187119 216.20225205 -195.28613993 216.95872501 -192.0703125 217.71484375 C-189.81204993 218.24711591 -187.55381059 218.77948661 -185.29559326 219.31195068 C-180.59617945 220.41943907 -175.89636967 221.52522782 -171.19628906 222.62988281 C-165.16622822 224.04734666 -159.13738621 225.46992309 -153.10884476 226.89383316 C-148.4615499 227.99077106 -143.81353657 229.0846389 -139.16530609 230.17760468 C-136.94024851 230.70126854 -134.71543915 231.22598827 -132.49088287 231.75177765 C-129.39733015 232.48256169 -126.30281445 233.2091177 -123.20800781 233.93457031 C-122.28858398 234.15270386 -121.36916016 234.3708374 -120.421875 234.59558105 C-119.58118469 234.79174011 -118.74049438 234.98789917 -117.87432861 235.19000244 C-117.1443932 235.36179142 -116.41445778 235.5335804 -115.66240311 235.7105751 C-113.57664337 236.16725341 -113.57664337 236.16725341 -110.7421875 236.07421875 C-110.7421875 223.53421875 -110.7421875 210.99421875 -110.7421875 198.07421875 C-122.04017183 194.81731834 -122.04017183 194.81731834 -133.41796875 191.95532227 C-134.1747139 191.77745178 -134.93145905 191.5995813 -135.71113586 191.4163208 C-138.15823649 190.84199603 -140.60642543 190.27247626 -143.0546875 189.703125 C-144.79807944 189.29511354 -146.54140487 188.8868178 -148.28466797 188.47825623 C-152.84562097 187.41021072 -157.40754199 186.34635792 -161.96966553 185.2833252 C-165.64009996 184.42730797 -169.30981607 183.56823585 -172.97950745 182.70903969 C-183.18184348 180.32033653 -193.3865246 177.94187096 -203.59350586 175.57309723 C-205.60219878 175.10672117 -207.61067781 174.63942412 -209.61914062 174.17205811 C-212.78431551 173.43651664 -215.95044818 172.70533388 -219.1171875 171.9765625 C-219.98424316 171.7747084 -220.85129883 171.57285431 -221.74462891 171.36488342 C-224.80884178 170.664852 -227.58772143 170.07421875 -230.7421875 170.07421875 Z M-255.57470703 174.26147461 C-256.77249786 174.73874496 -257.9702887 175.21601532 -259.20437622 175.70774841 C-260.51132604 176.23466656 -261.81819882 176.76177582 -263.125 177.2890625 C-264.46338051 177.82512991 -265.80191417 178.36081512 -267.14059448 178.89613342 C-269.94447176 180.01862272 -272.7469244 181.14457443 -275.54833984 182.27319336 C-279.14556819 183.72229206 -282.74549232 185.16454254 -286.34640694 186.60445309 C-289.10951726 187.70986006 -291.87154247 188.81795586 -294.63320541 189.92697334 C-295.96068217 190.4598777 -297.28841314 190.99214926 -298.61639786 191.52378654 C-300.46813034 192.26577515 -302.31833417 193.01157529 -304.16845703 193.75756836 C-305.75039352 194.39377357 -305.75039352 194.39377357 -307.36428833 195.04283142 C-309.65296211 195.86254623 -309.65296211 195.86254623 -310.7421875 197.07421875 C-310.83742655 199.96565026 -310.86771777 202.83313939 -310.85571289 205.72485352 C-310.85585892 206.6320816 -310.85600494 207.53930969 -310.8561554 208.47402954 C-310.85545591 211.4879186 -310.84766184 214.50174668 -310.83984375 217.515625 C-310.8379797 219.59927842 -310.83655574 221.68293229 -310.83555603 223.7665863 C-310.83172984 229.26245321 -310.8218987 234.75829388 -310.81085205 240.25415039 C-310.8006401 245.85758102 -310.79605887 251.46101588 -310.79101562 257.06445312 C-310.78027652 268.06771989 -310.76319889 279.07096714 -310.7421875 290.07421875 C-306.89447122 289.42124226 -303.49073227 288.30383638 -299.86621094 286.86523438 C-298.70861267 286.4080603 -297.5510144 285.95088623 -296.3583374 285.4798584 C-295.10601203 284.98022992 -293.85375533 284.48042931 -292.6015625 283.98046875 C-291.31084735 283.46833202 -290.020013 282.95649563 -288.72906494 282.44494629 C-286.03152791 281.37497115 -283.33516207 280.30211284 -280.63964844 279.22705078 C-277.17898112 277.84696932 -273.71592561 276.47300378 -270.25204086 275.10102081 C-267.59019222 274.04616533 -264.92939143 272.98868867 -262.26892853 271.93034363 C-260.99171152 271.42250207 -259.71422034 270.91534952 -258.43645477 270.40888977 C-256.6568037 269.70291381 -254.87865483 268.99315453 -253.10058594 268.28320312 C-252.0875238 267.87984741 -251.07446167 267.4764917 -250.03070068 267.06091309 C-247.81944939 266.27460344 -247.81944939 266.27460344 -246.7421875 265.07421875 C-246.65360104 262.3352779 -246.62695271 259.62168605 -246.64453125 256.8828125 C-246.6459462 256.06297379 -246.64736115 255.24313507 -246.64881897 254.39845276 C-246.65443461 251.76950493 -246.66698971 249.14064102 -246.6796875 246.51171875 C-246.68470049 244.73372518 -246.68926374 242.95573029 -246.69335938 241.17773438 C-246.70440911 236.8098633 -246.72168419 232.44205527 -246.7421875 228.07421875 C-252.66194826 229.94544368 -258.3375801 232.09960001 -263.99609375 234.6484375 C-265.52510928 235.3229038 -267.05441498 235.99671259 -268.58398438 236.66992188 C-270.95223526 237.71671286 -273.31820406 238.767801 -275.67944336 239.83032227 C-277.98763281 240.86646199 -280.30342564 241.88371184 -282.62109375 242.8984375 C-283.31715225 243.21713303 -284.01321075 243.53582855 -284.73036194 243.86418152 C-289.62774602 245.98514044 -293.4033702 246.45939765 -298.7421875 246.07421875 C-300.7421875 245.07421875 -300.7421875 245.07421875 -301.7421875 243.07421875 C-302.14043442 240.34338272 -302.29960146 237.78478076 -301.7421875 235.07421875 C-299.46216845 232.30024819 -297.00888582 231.12178716 -293.73583984 229.72998047 C-292.20943375 229.07447708 -292.20943375 229.07447708 -290.65219116 228.4057312 C-289.55524933 227.94312897 -288.4583075 227.48052673 -287.328125 227.00390625 C-285.64005234 226.28136154 -285.64005234 226.28136154 -283.9178772 225.54421997 C-280.32051228 224.00573625 -276.71908781 222.4770504 -273.1171875 220.94921875 C-269.50887844 219.41259497 -265.90145027 217.87394968 -262.29507446 216.33279419 C-260.04943348 215.37378147 -257.80252918 214.41772083 -255.55429077 213.46481323 C-254.54299103 213.0341153 -253.53169128 212.60341736 -252.48974609 212.15966797 C-251.5950058 211.78010956 -250.7002655 211.40055115 -249.77841187 211.00949097 C-247.79207321 210.23991271 -247.79207321 210.23991271 -246.7421875 209.07421875 C-246.65360104 206.3352779 -246.62695271 203.62168605 -246.64453125 200.8828125 C-246.6459462 200.06297379 -246.64736115 199.24313507 -246.64881897 198.39845276 C-246.65443461 195.76950493 -246.66698971 193.14064102 -246.6796875 190.51171875 C-246.68470049 188.73372518 -246.68926374 186.95573029 -246.69335938 185.17773438 C-246.70440911 180.8098633 -246.72168419 176.44205527 -246.7421875 172.07421875 C-250.23551418 172.07421875 -252.3323169 172.96189383 -255.57470703 174.26147461 Z M-230.7421875 226.07421875 C-230.7421875 238.61421875 -230.7421875 251.15421875 -230.7421875 264.07421875 C-222.07454184 266.38559093 -213.4492787 268.68403441 -204.72363281 270.73144531 C-203.73139709 270.96611511 -202.73916138 271.20078491 -201.71685791 271.44256592 C-198.50187119 272.20225205 -195.28613993 272.95872501 -192.0703125 273.71484375 C-189.81204993 274.24711591 -187.55381059 274.77948661 -185.29559326 275.31195068 C-180.59617945 276.41943907 -175.89636967 277.52522782 -171.19628906 278.62988281 C-165.16622822 280.04734666 -159.13738621 281.46992309 -153.10884476 282.89383316 C-148.4615499 283.99077106 -143.81353657 285.0846389 -139.16530609 286.17760468 C-136.94024851 286.70126854 -134.71543915 287.22598827 -132.49088287 287.75177765 C-129.39733015 288.48256169 -126.30281445 289.2091177 -123.20800781 289.93457031 C-122.28858398 290.15270386 -121.36916016 290.3708374 -120.421875 290.59558105 C-119.58118469 290.79174011 -118.74049438 290.98789917 -117.87432861 291.19000244 C-117.1443932 291.36179142 -116.41445778 291.5335804 -115.66240311 291.7105751 C-113.57664337 292.16725341 -113.57664337 292.16725341 -110.7421875 292.07421875 C-110.7421875 279.53421875 -110.7421875 266.99421875 -110.7421875 254.07421875 C-122.04784505 250.81515592 -122.04784505 250.81515592 -133.43383789 247.95532227 C-134.19218933 247.77745178 -134.95054077 247.5995813 -135.73187256 247.4163208 C-138.18379094 246.84203972 -140.63679259 246.2725459 -143.08984375 245.703125 C-144.83563923 245.29514777 -146.58136013 244.88685131 -148.32701111 244.47825623 C-152.89329578 243.41027828 -157.4605053 242.34631189 -162.0279541 241.2833252 C-167.51676007 240.0051696 -173.00449715 238.72243441 -178.49234581 237.44017601 C-182.88134443 236.41475185 -187.27054309 235.39020817 -191.66030884 234.36807251 C-198.72553146 232.72201192 -205.78912147 231.07220236 -212.83935547 229.36279297 C-214.32875893 229.00217018 -214.32875893 229.00217018 -215.84825134 228.63426208 C-217.56962713 228.21534049 -219.29008672 227.79262286 -221.0092926 227.36488342 C-224.39535907 226.53978139 -227.22895442 226.07421875 -230.7421875 226.07421875 Z M78.95654297 231.80249023 C78.21643982 231.98620178 77.47633667 232.16991333 76.71380615 232.35919189 C74.26663726 232.96768184 71.82079605 233.5813296 69.375 234.1953125 C67.67779619 234.61910843 65.98054002 235.04269475 64.28323364 235.46607971 C60.72681759 236.35407764 57.17105296 237.24462812 53.61572266 238.13696289 C49.0490271 239.282915 44.48077321 240.42250959 39.91201591 241.56021023 C36.40793348 242.43352675 32.90469514 243.31019 29.4017067 244.18788338 C27.71698064 244.6095666 26.03198997 245.03019404 24.34673691 245.44976616 C21.99705317 246.03529184 19.64854134 246.62530089 17.30029297 247.21655273 C16.59794525 247.39062149 15.89559753 247.56469025 15.17196655 247.74403381 C11.94394636 248.37115914 11.94394636 248.37115914 9.2578125 250.07421875 C9.16008938 252.56574595 9.12785432 255.02952383 9.13755798 257.52149963 C9.13670356 258.31047966 9.13584913 259.09945969 9.13496882 259.91234821 C9.13331161 262.57643502 9.13883929 265.24045993 9.14428711 267.90454102 C9.14456896 269.80614216 9.1444113 271.70774341 9.1438446 273.60934448 C9.14355653 278.78888159 9.14945487 283.96839576 9.15641856 289.14792752 C9.16265044 294.55450402 9.16325577 299.96108099 9.16444397 305.36766052 C9.16755778 315.61347166 9.17577183 325.85927218 9.18579346 336.10507864 C9.19695307 347.76630538 9.20246466 359.42753261 9.20748889 371.08876336 C9.2179544 395.0839224 9.2363005 419.07906689 9.2578125 443.07421875 C35.6578125 443.07421875 62.0578125 443.07421875 89.2578125 443.07421875 C89.2578125 372.78421875 89.2578125 302.49421875 89.2578125 230.07421875 C85.64629493 230.07421875 82.43236528 230.92597787 78.95654297 231.80249023 Z M105.2578125 233.07421875 C105.2578125 302.37421875 105.2578125 371.67421875 105.2578125 443.07421875 C115.8178125 443.07421875 126.3778125 443.07421875 137.2578125 443.07421875 C137.2578125 378.72421875 137.2578125 314.37421875 137.2578125 248.07421875 C121.87965736 237.94004167 121.87965736 237.94004167 105.2578125 233.07421875 Z M-230.7421875 282.07421875 C-230.7421875 294.61421875 -230.7421875 307.15421875 -230.7421875 320.07421875 C-222.07454184 322.38559093 -213.4492787 324.68403441 -204.72363281 326.73144531 C-203.73139709 326.96611511 -202.73916138 327.20078491 -201.71685791 327.44256592 C-198.50187119 328.20225205 -195.28613993 328.95872501 -192.0703125 329.71484375 C-189.81204993 330.24711591 -187.55381059 330.77948661 -185.29559326 331.31195068 C-180.59617945 332.41943907 -175.89636967 333.52522782 -171.19628906 334.62988281 C-165.16622822 336.04734666 -159.13738621 337.46992309 -153.10884476 338.89383316 C-148.4615499 339.99077106 -143.81353657 341.0846389 -139.16530609 342.17760468 C-136.94024851 342.70126854 -134.71543915 343.22598827 -132.49088287 343.75177765 C-129.39733015 344.48256169 -126.30281445 345.2091177 -123.20800781 345.93457031 C-122.28858398 346.15270386 -121.36916016 346.3708374 -120.421875 346.59558105 C-119.58118469 346.79174011 -118.74049438 346.98789917 -117.87432861 347.19000244 C-117.1443932 347.36179142 -116.41445778 347.5335804 -115.66240311 347.7105751 C-113.57664337 348.16725341 -113.57664337 348.16725341 -110.7421875 348.07421875 C-110.7421875 335.53421875 -110.7421875 322.99421875 -110.7421875 310.07421875 C-122.04017183 306.81731834 -122.04017183 306.81731834 -133.41796875 303.95532227 C-134.1747139 303.77745178 -134.93145905 303.5995813 -135.71113586 303.4163208 C-138.15823649 302.84199603 -140.60642543 302.27247626 -143.0546875 301.703125 C-144.79807944 301.29511354 -146.54140487 300.8868178 -148.28466797 300.47825623 C-152.84562097 299.41021072 -157.40754199 298.34635792 -161.96966553 297.2833252 C-165.64009996 296.42730797 -169.30981607 295.56823585 -172.97950745 294.70903969 C-183.18184348 292.32033653 -193.3865246 289.94187096 -203.59350586 287.57309723 C-205.60219878 287.10672117 -207.61067781 286.63942412 -209.61914062 286.17205811 C-212.78431551 285.43651664 -215.95044818 284.70533388 -219.1171875 283.9765625 C-219.98424316 283.7747084 -220.85129883 283.57285431 -221.74462891 283.36488342 C-224.80884178 282.664852 -227.58772143 282.07421875 -230.7421875 282.07421875 Z M-255.57470703 286.26147461 C-256.77249786 286.73874496 -257.9702887 287.21601532 -259.20437622 287.70774841 C-260.51132604 288.23466656 -261.81819882 288.76177582 -263.125 289.2890625 C-264.46338051 289.82512991 -265.80191417 290.36081512 -267.14059448 290.89613342 C-269.94447176 292.01862272 -272.7469244 293.14457443 -275.54833984 294.27319336 C-279.14556819 295.72229206 -282.74549232 297.16454254 -286.34640694 298.60445309 C-289.10951726 299.70986006 -291.87154247 300.81795586 -294.63320541 301.92697334 C-295.96068217 302.4598777 -297.28841314 302.99214926 -298.61639786 303.52378654 C-300.46813034 304.26577515 -302.31833417 305.01157529 -304.16845703 305.75756836 C-305.75039352 306.39377357 -305.75039352 306.39377357 -307.36428833 307.04283142 C-309.65296211 307.86254623 -309.65296211 307.86254623 -310.7421875 309.07421875 C-310.83077396 311.8131596 -310.85742229 314.52675145 -310.83984375 317.265625 C-310.8384288 318.08546371 -310.83701385 318.90530243 -310.83555603 319.74998474 C-310.82994039 322.37893257 -310.81738529 325.00779648 -310.8046875 327.63671875 C-310.79967451 329.41471232 -310.79511126 331.19270721 -310.79101562 332.97070312 C-310.77996589 337.3385742 -310.76269081 341.70638223 -310.7421875 346.07421875 C-306.89447122 345.42124226 -303.49073227 344.30383638 -299.86621094 342.86523438 C-298.70861267 342.4080603 -297.5510144 341.95088623 -296.3583374 341.4798584 C-295.10601203 340.98022992 -293.85375533 340.48042931 -292.6015625 339.98046875 C-291.31084735 339.46833202 -290.020013 338.95649563 -288.72906494 338.44494629 C-286.03152791 337.37497115 -283.33516207 336.30211284 -280.63964844 335.22705078 C-277.17898112 333.84696932 -273.71592561 332.47300378 -270.25204086 331.10102081 C-267.59019222 330.04616533 -264.92939143 328.98868867 -262.26892853 327.93034363 C-260.99171152 327.42250207 -259.71422034 326.91534952 -258.43645477 326.40888977 C-256.6568037 325.70291381 -254.87865483 324.99315453 -253.10058594 324.28320312 C-252.0875238 323.87984741 -251.07446167 323.4764917 -250.03070068 323.06091309 C-247.81944939 322.27460344 -247.81944939 322.27460344 -246.7421875 321.07421875 C-246.65360104 318.3352779 -246.62695271 315.62168605 -246.64453125 312.8828125 C-246.6459462 312.06297379 -246.64736115 311.24313507 -246.64881897 310.39845276 C-246.65443461 307.76950493 -246.66698971 305.14064102 -246.6796875 302.51171875 C-246.68470049 300.73372518 -246.68926374 298.95573029 -246.69335938 297.17773438 C-246.70440911 292.8098633 -246.72168419 288.44205527 -246.7421875 284.07421875 C-250.23551418 284.07421875 -252.3323169 284.96189383 -255.57470703 286.26147461 Z M-230.7421875 338.07421875 C-230.7421875 350.61421875 -230.7421875 363.15421875 -230.7421875 376.07421875 C-219.41457338 379.1289161 -219.41457338 379.1289161 -208.0390625 381.890625 C-206.79253906 382.18001953 -205.54601562 382.46941406 -204.26171875 382.76757812 C-202.35351295 383.20755304 -200.44523032 383.64727797 -198.53466797 384.0769043 C-196.63804403 384.50493708 -194.74473213 384.94756384 -192.8515625 385.390625 C-191.19592285 385.76876343 -191.19592285 385.76876343 -189.50683594 386.15454102 C-186.72679714 387.07933845 -185.48492488 387.75864922 -183.7421875 390.07421875 C-183.37890625 392.01171875 -183.37890625 392.01171875 -183.4296875 394.07421875 C-183.43355469 394.75484375 -183.43742187 395.43546875 -183.44140625 396.13671875 C-183.7421875 398.07421875 -183.7421875 398.07421875 -185.7421875 401.07421875 C-191.60196632 402.35499502 -196.11375755 401.91446876 -201.85546875 400.421875 C-202.95981514 400.15340004 -202.95981514 400.15340004 -204.08647156 399.87950134 C-206.41264112 399.31155341 -208.73359061 398.72501965 -211.0546875 398.13671875 C-213.39439683 397.55570096 -215.73501198 396.97861002 -218.07646179 396.40464783 C-219.52674388 396.04787051 -220.9758744 395.6863708 -222.42366028 395.31959534 C-225.28291852 394.60596287 -227.78144134 394.07421875 -230.7421875 394.07421875 C-230.7421875 410.24421875 -230.7421875 426.41421875 -230.7421875 443.07421875 C-191.1421875 443.07421875 -151.5421875 443.07421875 -110.7421875 443.07421875 C-110.7421875 436.14421875 -110.7421875 429.21421875 -110.7421875 422.07421875 C-122.89976455 418.45175702 -135.17002366 415.61553123 -147.546875 412.85058594 C-150.13641235 412.27059792 -152.72448854 411.68440921 -155.3125 411.09765625 C-156.10101349 410.92366302 -156.88952698 410.7496698 -157.70193481 410.57040405 C-164.87140481 408.9409121 -164.87140481 408.9409121 -167.7421875 407.07421875 C-169.29993686 403.95872003 -169.30699372 400.46977995 -168.7421875 397.07421875 C-167.20100107 395.12475356 -166.30819573 394.1841814 -163.83834839 393.7043457 C-157.85570405 393.83153652 -152.36239056 394.82773973 -146.5625 396.26171875 C-145.62791962 396.4836792 -144.69333923 396.70563965 -143.73043823 396.93432617 C-140.7736574 397.63815226 -137.8203703 398.35545979 -134.8671875 399.07421875 C-131.89207142 399.79059285 -128.91630485 400.50408813 -125.93966675 401.21411133 C-124.09451596 401.65503817 -122.25033424 402.10004468 -120.40725708 402.54956055 C-119.57564056 402.74976807 -118.74402405 402.94997559 -117.88720703 403.15625 C-117.15712433 403.33389893 -116.42704163 403.51154785 -115.67483521 403.69458008 C-113.57982728 404.1705942 -113.57982728 404.1705942 -110.7421875 404.07421875 C-110.7421875 391.53421875 -110.7421875 378.99421875 -110.7421875 366.07421875 C-122.52212373 362.69689411 -122.52212373 362.69689411 -134.38696289 359.73999023 C-135.24594681 359.53940002 -136.10493073 359.33880981 -136.98994446 359.13214111 C-139.77248477 358.48321699 -142.55613529 357.83920524 -145.33984375 357.1953125 C-147.30658392 356.73769382 -149.2732523 356.27976651 -151.23985291 355.82154846 C-156.38129124 354.62446906 -161.52369513 353.43159081 -166.6663208 352.23962402 C-171.87515917 351.0314985 -177.08303928 349.8192569 -182.29101562 348.60742188 C-195.02370267 345.64508887 -195.02370267 345.64508887 -207.75886631 342.69342709 C-211.43958111 341.84207856 -215.11917787 340.987055 -218.79464722 340.11331177 C-219.96254791 339.83752289 -221.13044861 339.56173401 -222.33374023 339.27758789 C-223.32083481 339.04197647 -224.30792938 338.80636505 -225.32493591 338.56361389 C-227.82119547 337.9750021 -227.82119547 337.9750021 -230.7421875 338.07421875 Z M-255.57470703 342.26147461 C-256.77249786 342.73874496 -257.9702887 343.21601532 -259.20437622 343.70774841 C-260.51132604 344.23466656 -261.81819882 344.76177582 -263.125 345.2890625 C-264.46338051 345.82512991 -265.80191417 346.36081512 -267.14059448 346.89613342 C-269.94447176 348.01862272 -272.7469244 349.14457443 -275.54833984 350.27319336 C-279.14556819 351.72229206 -282.74549232 353.16454254 -286.34640694 354.60445309 C-289.10951726 355.70986006 -291.87154247 356.81795586 -294.63320541 357.92697334 C-295.96068217 358.4598777 -297.28841314 358.99214926 -298.61639786 359.52378654 C-300.46813034 360.26577515 -302.31833417 361.01157529 -304.16845703 361.75756836 C-305.75039352 362.39377357 -305.75039352 362.39377357 -307.36428833 363.04283142 C-309.65296211 363.86254623 -309.65296211 363.86254623 -310.7421875 365.07421875 C-310.83077396 367.8131596 -310.85742229 370.52675145 -310.83984375 373.265625 C-310.8384288 374.08546371 -310.83701385 374.90530243 -310.83555603 375.74998474 C-310.82994039 378.37893257 -310.81738529 381.00779648 -310.8046875 383.63671875 C-310.79967451 385.41471232 -310.79511126 387.19270721 -310.79101562 388.97070312 C-310.77996589 393.3385742 -310.76269081 397.70638223 -310.7421875 402.07421875 C-306.89447122 401.42124226 -303.49073227 400.30383638 -299.86621094 398.86523438 C-298.70861267 398.4080603 -297.5510144 397.95088623 -296.3583374 397.4798584 C-295.10601203 396.98022992 -293.85375533 396.48042931 -292.6015625 395.98046875 C-291.31084735 395.46833202 -290.020013 394.95649563 -288.72906494 394.44494629 C-286.03152791 393.37497115 -283.33516207 392.30211284 -280.63964844 391.22705078 C-277.17898112 389.84696932 -273.71592561 388.47300378 -270.25204086 387.10102081 C-267.59019222 386.04616533 -264.92939143 384.98868867 -262.26892853 383.93034363 C-260.99171152 383.42250207 -259.71422034 382.91534952 -258.43645477 382.40888977 C-256.6568037 381.70291381 -254.87865483 380.99315453 -253.10058594 380.28320312 C-252.0875238 379.87984741 -251.07446167 379.4764917 -250.03070068 379.06091309 C-247.81944939 378.27460344 -247.81944939 378.27460344 -246.7421875 377.07421875 C-246.65360104 374.3352779 -246.62695271 371.62168605 -246.64453125 368.8828125 C-246.6459462 368.06297379 -246.64736115 367.24313507 -246.64881897 366.39845276 C-246.65443461 363.76950493 -246.66698971 361.14064102 -246.6796875 358.51171875 C-246.68470049 356.73372518 -246.68926374 354.95573029 -246.69335938 353.17773438 C-246.70440911 348.8098633 -246.72168419 344.44205527 -246.7421875 340.07421875 C-250.23551418 340.07421875 -252.3323169 340.96189383 -255.57470703 342.26147461 Z M-94.7421875 379.07421875 C-94.7421875 400.19421875 -94.7421875 421.31421875 -94.7421875 443.07421875 C-78.9021875 443.07421875 -63.0621875 443.07421875 -46.7421875 443.07421875 C-46.7421875 421.95421875 -46.7421875 400.83421875 -46.7421875 379.07421875 C-62.5821875 379.07421875 -78.4221875 379.07421875 -94.7421875 379.07421875 Z M-255.57470703 398.26147461 C-256.77249786 398.73874496 -257.9702887 399.21601532 -259.20437622 399.70774841 C-260.51132604 400.23466656 -261.81819882 400.76177582 -263.125 401.2890625 C-264.46338051 401.82512991 -265.80191417 402.36081512 -267.14059448 402.89613342 C-269.94447176 404.01862272 -272.7469244 405.14457443 -275.54833984 406.27319336 C-279.14556819 407.72229206 -282.74549232 409.16454254 -286.34640694 410.60445309 C-289.10951726 411.70986006 -291.87154247 412.81795586 -294.63320541 413.92697334 C-295.96068217 414.4598777 -297.28841314 414.99214926 -298.61639786 415.52378654 C-300.46813034 416.26577515 -302.31833417 417.01157529 -304.16845703 417.75756836 C-305.75039352 418.39377357 -305.75039352 418.39377357 -307.36428833 419.04283142 C-309.65296211 419.86254623 -309.65296211 419.86254623 -310.7421875 421.07421875 C-310.7421875 428.33421875 -310.7421875 435.59421875 -310.7421875 443.07421875 C-289.6221875 443.07421875 -268.5021875 443.07421875 -246.7421875 443.07421875 C-246.7421875 427.56421875 -246.7421875 412.05421875 -246.7421875 396.07421875 C-250.23551418 396.07421875 -252.3323169 396.96189383 -255.57470703 398.26147461 Z " fill="#000000" transform="translate(342.7421875,28.92578125)"/>
<path d="M0 0 C0.66 -0.0103125 1.32 -0.020625 2 -0.03125 C5.07909456 0.78663449 6.08857673 1.92907257 8 4.5 C8.60747357 7.68248993 8.53929619 10.83381083 8.50793457 14.06542969 C8.51729451 15.53640169 8.51729451 15.53640169 8.52684355 17.0370903 C8.54283391 20.33226109 8.53014534 23.62669836 8.51757812 26.921875 C8.52299654 29.28048129 8.53011761 31.6390842 8.53881836 33.99768066 C8.55708785 40.41081505 8.54996907 46.82369267 8.53730202 53.23683167 C8.53019867 57.24037146 8.53152904 61.2438936 8.53526306 65.24743652 C8.53587599 65.91182637 8.53648893 66.57621622 8.53712043 67.26073909 C8.53839932 68.61039004 8.53969617 69.96004098 8.5410108 71.30969191 C8.55241986 83.96852362 8.53929782 96.62723951 8.51780933 109.28605223 C8.49993801 120.15039491 8.50304203 131.01456665 8.52148438 141.87890625 C8.54288538 154.49210551 8.5513212 167.10520324 8.53903532 179.71841812 C8.53776111 181.06313322 8.53650363 182.40784834 8.53526306 183.75256348 C8.53464596 184.41420714 8.53402886 185.07585081 8.53339306 185.75754428 C8.52993782 190.42250678 8.5359672 195.08736954 8.54518127 199.75231934 C8.55671369 206.02979792 8.54876144 212.30695284 8.52560425 218.58439636 C8.52030324 220.89189618 8.52185456 223.19942311 8.53065491 225.50691223 C8.5415387 228.64983596 8.52793288 231.79171376 8.50793457 234.93457031 C8.5213189 236.31374193 8.5213189 236.31374193 8.53497362 237.7207756 C8.45858731 243.88318492 8.45858731 243.88318492 6.09325409 247.06463623 C3.83069948 248.61609094 2.71682412 249.04245038 0 249 C-0.66 249.0103125 -1.32 249.020625 -2 249.03125 C-5.07909456 248.21336551 -6.08857673 247.07092743 -8 244.5 C-8.60747357 241.31751007 -8.53929619 238.16618917 -8.50793457 234.93457031 C-8.51417453 233.95392231 -8.5204145 232.97327431 -8.52684355 231.9629097 C-8.54283391 228.66773891 -8.53014534 225.37330164 -8.51757812 222.078125 C-8.52299654 219.71951871 -8.53011761 217.3609158 -8.53881836 215.00231934 C-8.55708785 208.58918495 -8.54996907 202.17630733 -8.53730202 195.76316833 C-8.53019867 191.75962854 -8.53152904 187.7561064 -8.53526306 183.75256348 C-8.53587599 183.08817363 -8.53648893 182.42378378 -8.53712043 181.73926091 C-8.53839932 180.38960996 -8.53969617 179.03995902 -8.5410108 177.69030809 C-8.55241986 165.03147638 -8.53929782 152.37276049 -8.51780933 139.71394777 C-8.49993801 128.84960509 -8.50304203 117.98543335 -8.52148438 107.12109375 C-8.54288538 94.50789449 -8.5513212 81.89479676 -8.53903532 69.28158188 C-8.53776111 67.93686678 -8.53650363 66.59215166 -8.53526306 65.24743652 C-8.53433741 64.25497103 -8.53433741 64.25497103 -8.53339306 63.24245572 C-8.52993782 58.57749322 -8.5359672 53.91263046 -8.54518127 49.24768066 C-8.55671369 42.97020208 -8.54876144 36.69304716 -8.52560425 30.41560364 C-8.52030324 28.10810382 -8.52185456 25.80057689 -8.53065491 23.49308777 C-8.5415387 20.35016404 -8.52793288 17.20828624 -8.50793457 14.06542969 C-8.51685746 13.14598194 -8.52578034 12.22653419 -8.53497362 11.2792244 C-8.45858731 5.11681508 -8.45858731 5.11681508 -6.09325409 1.93536377 C-3.83069948 0.38390906 -2.71682412 -0.04245038 0 0 Z " fill="#000000" transform="translate(264,127.5)"/>
<path d="M0 0 C0.66 -0.0103125 1.32 -0.020625 2 -0.03125 C5.00147854 0.76601774 6.09615219 2.05298031 8 4.5 C8.39298743 7.21656131 8.540998 9.52823726 8.50793457 12.24316406 C8.51729451 13.4201203 8.51729451 13.4201203 8.52684355 14.62085342 C8.54281156 17.2527487 8.53015481 19.88372269 8.51757812 22.515625 C8.52299756 24.401332 8.53011922 26.28703477 8.53881836 28.17272949 C8.55707583 33.29667004 8.54997415 38.42028895 8.53730202 43.54423523 C8.52718692 48.90222044 8.53656355 54.26017779 8.54284668 59.61816406 C8.55012743 68.61658685 8.54052414 77.61487838 8.52148438 86.61328125 C8.49971486 97.02210635 8.50676592 107.43061807 8.52879 117.83943558 C8.54693179 126.7703177 8.54950828 135.70110538 8.53903532 144.63199997 C8.53279369 149.96862679 8.53198318 155.30510623 8.54518127 160.64172363 C8.55672137 165.65852047 8.54874768 170.67491261 8.52560425 175.69166565 C8.52030731 177.53474759 8.52184771 179.37786349 8.53065491 181.22093201 C8.54155536 183.73336247 8.52791444 186.244489 8.50793457 188.75683594 C8.5213189 189.85585928 8.5213189 189.85585928 8.53497362 190.97708511 C8.48170926 194.42034975 8.2362245 196.19638014 6.09325409 198.95074463 C3.82246197 200.63139912 2.78943679 201.04358495 0 201 C-0.66 201.0103125 -1.32 201.020625 -2 201.03125 C-5.00147854 200.23398226 -6.09615219 198.94701969 -8 196.5 C-8.39298743 193.78343869 -8.540998 191.47176274 -8.50793457 188.75683594 C-8.51417453 187.97219845 -8.5204145 187.18756096 -8.52684355 186.37914658 C-8.54281156 183.7472513 -8.53015481 181.11627731 -8.51757812 178.484375 C-8.52299756 176.598668 -8.53011922 174.71296523 -8.53881836 172.82727051 C-8.55707583 167.70332996 -8.54997415 162.57971105 -8.53730202 157.45576477 C-8.52718692 152.09777956 -8.53656355 146.73982221 -8.54284668 141.38183594 C-8.55012743 132.38341315 -8.54052414 123.38512162 -8.52148438 114.38671875 C-8.49971486 103.97789365 -8.50676592 93.56938193 -8.52879 83.16056442 C-8.54693179 74.2296823 -8.54950828 65.29889462 -8.53903532 56.36800003 C-8.53279369 51.03137321 -8.53198318 45.69489377 -8.54518127 40.35827637 C-8.55672137 35.34147953 -8.54874768 30.32508739 -8.52560425 25.30833435 C-8.52030731 23.46525241 -8.52184771 21.62213651 -8.53065491 19.77906799 C-8.54155536 17.26663753 -8.52791444 14.755511 -8.50793457 12.24316406 C-8.51685746 11.51048183 -8.52578034 10.77779961 -8.53497362 10.02291489 C-8.48170926 6.57965025 -8.2362245 4.80361986 -6.09325409 2.04925537 C-3.82246197 0.36860088 -2.78943679 -0.04358495 0 0 Z " fill="#000000" transform="translate(304,175.5)"/>
<path d="M0 0 C0.66 -0.0103125 1.32 -0.020625 2 -0.03125 C4.95464637 0.75357794 6.09652302 2.1292545 8 4.5 C8.50336456 7.47979736 8.50336456 7.47979736 8.50793457 11.02832031 C8.51729451 12.00926603 8.51729451 12.00926603 8.52684355 13.01002884 C8.54278935 15.19976178 8.53016445 17.38838395 8.51757812 19.578125 C8.52299859 21.14856618 8.53012083 22.71900227 8.53881836 24.28942871 C8.55706383 28.55391389 8.54997927 32.81801227 8.53730202 37.08250427 C8.52718063 41.54362029 8.5365653 46.00470301 8.54284668 50.46582031 C8.55012561 57.95774283 8.54052898 65.44950767 8.52148438 72.94140625 C8.49971511 81.60524253 8.50676631 90.2687023 8.52879 98.93252945 C8.54693704 106.36873728 8.54950574 113.80483172 8.53903532 121.24105453 C8.53279654 125.6834302 8.53197525 130.12562885 8.54518127 134.56799316 C8.5567291 138.7443455 8.54873395 142.92021203 8.52560425 147.09651184 C8.52031139 148.62998141 8.52184083 150.16349181 8.53065491 151.69694519 C8.54157225 153.78907677 8.52789623 155.87964781 8.50793457 157.97167969 C8.50642647 159.14269226 8.50491837 160.31370483 8.50336456 161.52020264 C7.89568923 165.11749469 6.84518726 166.29102294 4 168.5 C2 169.03125 2 169.03125 0 169 C-0.66 169.0103125 -1.32 169.020625 -2 169.03125 C-4.95464637 168.24642206 -6.09652302 166.8707455 -8 164.5 C-8.50336456 161.52020264 -8.50336456 161.52020264 -8.50793457 157.97167969 C-8.51417453 157.31771587 -8.5204145 156.66375206 -8.52684355 155.98997116 C-8.54278935 153.80023822 -8.53016445 151.61161605 -8.51757812 149.421875 C-8.52299859 147.85143382 -8.53012083 146.28099773 -8.53881836 144.71057129 C-8.55706383 140.44608611 -8.54997927 136.18198773 -8.53730202 131.91749573 C-8.52718063 127.45637971 -8.5365653 122.99529699 -8.54284668 118.53417969 C-8.55012561 111.04225717 -8.54052898 103.55049233 -8.52148438 96.05859375 C-8.49971511 87.39475747 -8.50676631 78.7312977 -8.52879 70.06747055 C-8.54693704 62.63126272 -8.54950574 55.19516828 -8.53903532 47.75894547 C-8.53279654 43.3165698 -8.53197525 38.87437115 -8.54518127 34.43200684 C-8.5567291 30.2556545 -8.54873395 26.07978797 -8.52560425 21.90348816 C-8.52031139 20.37001859 -8.52184083 18.83650819 -8.53065491 17.30305481 C-8.54157225 15.21092323 -8.52789623 13.12035219 -8.50793457 11.02832031 C-8.50642647 9.85730774 -8.50491837 8.68629517 -8.50336456 7.47979736 C-7.69127092 2.67239797 -4.94837595 -0.07731837 0 0 Z " fill="#000000" transform="translate(376,287.5)"/>
<path d="M0 0 C0.66 -0.0103125 1.32 -0.020625 2 -0.03125 C5.09576952 0.79106378 6.08574953 1.90274496 8 4.5 C8.61072755 7.80623789 8.54611118 11.08337527 8.51757812 14.4375 C8.5245874 15.44603027 8.53159668 16.45456055 8.53881836 17.49365234 C8.55643218 20.82938114 8.5447631 24.16426248 8.53125 27.5 C8.53394393 29.81640791 8.53782551 32.13281472 8.54284668 34.44921875 C8.54874634 39.30479698 8.54016338 44.16008096 8.52148438 49.015625 C8.49869496 55.24364646 8.51181548 61.47097845 8.53577423 67.69897461 C8.55021932 72.48247485 8.54563205 77.26581127 8.53526306 82.04931641 C8.53259223 84.34586671 8.535878 86.64243183 8.54518127 88.93896484 C8.55532527 92.1472114 8.53987483 95.35433706 8.51757812 98.5625 C8.52567505 99.51431152 8.53377197 100.46612305 8.54211426 101.44677734 C8.45920542 107.87695009 8.45920542 107.87695009 6.09265137 111.08789062 C3.8323576 112.61312415 2.7019348 113.04221773 0 113 C-0.66 113.0103125 -1.32 113.020625 -2 113.03125 C-5.09576952 112.20893622 -6.08574953 111.09725504 -8 108.5 C-8.61072755 105.19376211 -8.54611118 101.91662473 -8.51757812 98.5625 C-8.5245874 97.55396973 -8.53159668 96.54543945 -8.53881836 95.50634766 C-8.55643218 92.17061886 -8.5447631 88.83573752 -8.53125 85.5 C-8.53394393 83.18359209 -8.53782551 80.86718528 -8.54284668 78.55078125 C-8.54874634 73.69520302 -8.54016338 68.83991904 -8.52148438 63.984375 C-8.49869496 57.75635354 -8.51181548 51.52902155 -8.53577423 45.30102539 C-8.55021932 40.51752515 -8.54563205 35.73418873 -8.53526306 30.95068359 C-8.53259223 28.65413329 -8.535878 26.35756817 -8.54518127 24.06103516 C-8.55532527 20.8527886 -8.53987483 17.64566294 -8.51757812 14.4375 C-8.52567505 13.48568848 -8.53377197 12.53387695 -8.54211426 11.55322266 C-8.45920542 5.12304991 -8.45920542 5.12304991 -6.09265137 1.91210938 C-3.8323576 0.38687585 -2.7019348 -0.04221773 0 0 Z " fill="#000000" transform="translate(408,287.5)"/>
<path d="M0 0 C0.66 -0.0103125 1.32 -0.020625 2 -0.03125 C4.98156897 0.76072926 6.09610121 2.08553675 8 4.5 C8.51757812 7.828125 8.51757812 7.828125 8.53125 11.75 C8.5350769 12.44512695 8.53890381 13.14025391 8.54284668 13.85644531 C8.5455618 15.32228041 8.53822835 16.78816428 8.52148438 18.25390625 C8.50006419 20.49328975 8.52129443 22.72946587 8.546875 24.96875 C8.54423165 26.39584039 8.5391065 27.82292879 8.53125 29.25 C8.52673828 30.54421875 8.52222656 31.8384375 8.51757812 33.171875 C7.92081106 37.00919979 7.05716949 38.19070951 4 40.5 C2 41.03125 2 41.03125 0 41 C-0.99 41.01546875 -0.99 41.01546875 -2 41.03125 C-4.98156897 40.23927074 -6.09610121 38.91446325 -8 36.5 C-8.51757812 33.171875 -8.51757812 33.171875 -8.53125 29.25 C-8.5350769 28.55487305 -8.53890381 27.85974609 -8.54284668 27.14355469 C-8.5455618 25.67771959 -8.53822835 24.21183572 -8.52148438 22.74609375 C-8.50006419 20.50671025 -8.52129443 18.27053413 -8.546875 16.03125 C-8.54423165 14.60415961 -8.5391065 13.17707121 -8.53125 11.75 C-8.52673828 10.45578125 -8.52222656 9.1615625 -8.51757812 7.828125 C-7.7418101 2.83979026 -5.19836111 -0.08122439 0 0 Z " fill="#000000" transform="translate(408,415.5)"/>
<path d="M0 0 C0.66 -0.0103125 1.32 -0.020625 2 -0.03125 C4.91796104 0.7438334 6.0931088 2.19104167 8 4.5 C8.51757812 7.09375 8.51757812 7.09375 8.53125 10 C8.53640625 11.051875 8.5415625 12.10375 8.546875 13.1875 C8.53140625 14.280625 8.5159375 15.37375 8.5 16.5 C8.51546875 17.593125 8.5309375 18.68625 8.546875 19.8125 C8.54171875 20.864375 8.5365625 21.91625 8.53125 23 C8.52673828 23.9590625 8.52222656 24.918125 8.51757812 25.90625 C7.857725 29.21298564 6.58886445 30.40908706 4 32.5 C2 33.03125 2 33.03125 0 33 C-0.99 33.01546875 -0.99 33.01546875 -2 33.03125 C-4.91796104 32.2561666 -6.0931088 30.80895833 -8 28.5 C-8.51757812 25.90625 -8.51757812 25.90625 -8.53125 23 C-8.53640625 21.948125 -8.5415625 20.89625 -8.546875 19.8125 C-8.53140625 18.719375 -8.5159375 17.62625 -8.5 16.5 C-8.51546875 15.406875 -8.5309375 14.31375 -8.546875 13.1875 C-8.53914063 11.6096875 -8.53914063 11.6096875 -8.53125 10 C-8.52673828 9.0409375 -8.52222656 8.081875 -8.51757812 7.09375 C-7.60329874 2.51200272 -4.67433964 -0.07303656 0 0 Z " fill="#000000" transform="translate(304,127.5)"/>
</svg>
