<?xml version="1.0" encoding="UTF-8"?>
<svg version="1.1" xmlns="http://www.w3.org/2000/svg" width="512" height="512">
<path d="M0 0 C8.56787298 7.10419468 14.98770184 15.1186432 16.75 26.3125 C17.71078055 39.95243374 15.27150243 50.40497689 6.75 61.3125 C5.76952351 62.33164957 4.77553194 63.33870113 3.75 64.3125 C4.50023437 64.78558594 5.25046875 65.25867188 6.0234375 65.74609375 C23.39564285 76.97020124 36.1486772 90.76019269 41.12817383 111.31860352 C42.62145082 119.49483453 42.22903098 128.00849852 42.19604492 136.28613281 C42.18748308 139.56898693 42.21645433 142.85012717 42.24804688 146.1328125 C42.24965805 148.23958282 42.24908297 150.34635619 42.24609375 152.453125 C42.25732773 153.42413147 42.26856171 154.39513794 42.28013611 155.39556885 C42.21136605 162.15208857 41.04900695 167.75268578 36.33811951 172.83599854 C30.26743357 178.21384072 24.86565169 178.61077912 17.12963867 178.60302734 C16.16640182 178.60974457 15.20316498 178.61646179 14.21073914 178.62338257 C11.02976304 178.64236365 7.84899794 178.64628693 4.66796875 178.6484375 C2.45225437 178.65486565 0.23654084 178.66159402 -1.97917175 178.66860962 C-6.62358569 178.68058288 -11.26792524 178.68429042 -15.91235352 178.68310547 C-21.85405535 178.68290235 -27.7952785 178.7101973 -33.73686695 178.74464989 C-38.3137581 178.76692426 -42.89053419 178.77094283 -47.46747398 178.76988602 C-49.65746395 178.77224143 -51.84745711 178.78106156 -54.03739357 178.79655075 C-57.10575163 178.81621977 -60.17307924 178.8103685 -63.24145508 178.79833984 C-64.1399115 178.80957886 -65.03836792 178.82081787 -65.96405029 178.83239746 C-72.81551582 178.76439264 -77.89113843 176.97754268 -83.2734375 172.70703125 C-83.94246094 171.92392578 -83.94246094 171.92392578 -84.625 171.125 C-85.08648437 170.61582031 -85.54796875 170.10664063 -86.0234375 169.58203125 C-90.23285382 161.79327048 -89.55966367 152.58215325 -89.51074219 143.98608398 C-89.50013858 141.77884686 -89.51062064 139.57244487 -89.5234375 137.36523438 C-89.54780074 114.83772578 -85.8945391 94.87886125 -69.625 78.125 C-63.83391602 72.35620013 -57.40051546 68.23375042 -50.25 64.3125 C-51.02923828 63.54679687 -51.02923828 63.54679687 -51.82421875 62.765625 C-59.38240751 54.88610843 -63.79305839 46.11967945 -64.31640625 35.09765625 C-64.03062423 23.11162226 -60.49862917 12.95835268 -52.2578125 4.12890625 C-37.97851977 -8.78913095 -16.06307802 -11.21915371 0 0 Z M-45.25 18.3125 C-49.68427739 24.80777955 -50.10794846 31.64327778 -49.25 39.3125 C-47.85143715 45.73513093 -44.64839939 50.85181943 -39.25390625 54.7578125 C-31.97131731 59.43470448 -25.87193472 60.01428538 -17.25 59.3125 C-10.55600046 57.64902107 -5.32790399 53.83774297 -1.25 48.3125 C2.3588587 41.95962743 3.89615559 35.57148542 2.75 28.3125 C0.40239817 20.54156132 -3.71323402 14.58498747 -10.8125 10.5 C-23.39054737 3.76409595 -36.09123815 7.89259938 -45.25 18.3125 Z M-61.6953125 90.4453125 C-68.77473057 98.94772917 -74.28092889 109.45443863 -74.42700195 120.7421875 C-74.43983719 121.6098877 -74.45267242 122.47758789 -74.46589661 123.37158203 C-74.47328354 124.30083496 -74.48067047 125.23008789 -74.48828125 126.1875 C-74.496353 127.14897949 -74.50442474 128.11045898 -74.51274109 129.10107422 C-74.52655392 131.13181772 -74.53728856 133.16258417 -74.54516602 135.19335938 C-74.56243734 138.30122392 -74.60635503 141.4080403 -74.65039062 144.515625 C-74.66051309 146.48957552 -74.66903058 148.46353507 -74.67578125 150.4375 C-74.69328934 151.36675293 -74.71079742 152.29600586 -74.72883606 153.25341797 C-74.72591049 154.12111816 -74.72298492 154.98881836 -74.7199707 155.8828125 C-74.72583694 156.64352051 -74.73170319 157.40422852 -74.73774719 158.18798828 C-74.00282033 161.38915636 -72.95143527 162.43628675 -70.25 164.3125 C-67.27946872 164.89910909 -64.35808934 164.85893445 -61.33813477 164.83007812 C-60.43850006 164.8370874 -59.53886536 164.84409668 -58.61196899 164.85131836 C-55.63813405 164.86892317 -52.66525088 164.85726572 -49.69140625 164.84375 C-47.62401649 164.84644443 -45.55662797 164.85032645 -43.48924255 164.85534668 C-39.15571023 164.8612453 -34.82250767 164.85266778 -30.48901367 164.83398438 C-24.93590535 164.81120907 -19.38357091 164.82430688 -13.83049107 164.84827423 C-9.56078775 164.86273442 -5.29126762 164.85812491 -1.02155876 164.84776306 C1.0257584 164.84509566 3.07309223 164.848366 5.12038994 164.85768127 C7.98362075 164.86784873 10.84560237 164.85234218 13.70874023 164.83007812 C14.55409836 164.83817505 15.39945648 164.84627197 16.27043152 164.85461426 C20.20830048 164.79793243 22.31032867 164.57019205 25.77662659 162.53858948 C27.90414736 160.13861207 28.37439317 159.31623931 28.36523438 156.17749023 C28.37453979 155.37242538 28.38384521 154.56736053 28.39343262 153.73789978 C28.37703735 152.87435379 28.36064209 152.0108078 28.34375 151.12109375 C28.34379028 150.22060806 28.34383057 149.32012238 28.34387207 148.39234924 C28.33851312 146.48504672 28.32091428 144.57774505 28.29199219 142.6706543 C28.25049297 139.78428726 28.25089668 136.90028414 28.2578125 134.01367188 C28.2035046 118.04437686 26.03440341 102.18192961 14.55859375 89.9609375 C1.29752849 77.87417824 -12.38133734 73.4197986 -29.98046875 74.13769531 C-42.13848305 75.07413445 -53.48332033 81.60465108 -61.6953125 90.4453125 Z " fill="#000000" transform="translate(421.25,44.6875)"/>
<path d="M0 0 C1.26249449 0.85687377 2.51347346 1.7310609 3.75 2.625 C4.78125 3.3675 5.8125 4.11 6.875 4.875 C14.89227786 12.54370057 18.95970525 21.95906086 19.7421875 32.96484375 C19.77498132 44.13113802 16.3710903 55.30311738 8.375 63.375 C7.50875 64.1175 6.6425 64.86 5.75 65.625 C6.76707031 66.22634766 6.76707031 66.22634766 7.8046875 66.83984375 C14.82567898 71.12828868 20.87987661 75.86563366 26.75 81.625 C27.38808594 82.23859375 28.02617187 82.8521875 28.68359375 83.484375 C39.8431878 95.11620131 44.24030828 110.91139285 44.1484375 126.64453125 C44.15274277 128.29783699 44.15274277 128.29783699 44.15713501 129.98454285 C44.15916201 132.29463216 44.15372858 134.60473917 44.14111328 136.91479492 C44.12496323 140.4455381 44.14104882 143.97515004 44.16015625 147.50585938 C44.15817508 149.76041918 44.15433403 152.01497829 44.1484375 154.26953125 C44.15451019 155.31961868 44.16058289 156.36970612 44.1668396 157.45161438 C44.10553352 163.83799105 43.55090736 168.51878046 39.1015625 173.453125 C38.53179687 173.92234375 37.96203125 174.3915625 37.375 174.875 C36.81039062 175.35453125 36.24578125 175.8340625 35.6640625 176.328125 C30.31994323 179.94903847 25.37569071 179.92178612 19.12963867 179.91552734 C18.16640182 179.92224457 17.20316498 179.92896179 16.21073914 179.93588257 C13.02976304 179.95486365 9.84899794 179.95878693 6.66796875 179.9609375 C4.45225437 179.96736565 2.23654084 179.97409402 0.02082825 179.98110962 C-4.62358569 179.99308288 -9.26792524 179.99679042 -13.91235352 179.99560547 C-19.85405535 179.99540235 -25.7952785 180.0226973 -31.73686695 180.05714989 C-36.3137581 180.07942426 -40.89053419 180.08344283 -45.46747398 180.08238602 C-47.65746395 180.08474143 -49.84745711 180.09356156 -52.03739357 180.10905075 C-55.10575163 180.12871977 -58.17307924 180.1228685 -61.24145508 180.11083984 C-62.1399115 180.12207886 -63.03836792 180.13331787 -63.96405029 180.14489746 C-70.45412735 180.08047963 -75.90398809 178.71920658 -80.77682209 174.21307945 C-86.34781022 167.90902643 -86.5676434 162.19533747 -86.5859375 154.1640625 C-86.5925943 153.14130219 -86.5992511 152.11854187 -86.60610962 151.06478882 C-86.61622686 148.89786572 -86.62092693 146.73091153 -86.62060547 144.56396484 C-86.624939 141.29600354 -86.6611588 138.02943771 -86.69921875 134.76171875 C-86.8171384 113.12558171 -82.76762256 95.20822539 -67.09375 79.29296875 C-61.46260102 74.00989903 -55.29752298 69.77783923 -48.25 66.625 C-48.61351562 66.18671875 -48.97703125 65.7484375 -49.3515625 65.296875 C-58.88377636 53.27162059 -62.61243828 41.76774047 -61.25 26.625 C-58.82126007 15.20298307 -51.5950018 6.3683533 -42.25 -0.375 C-39.00018741 -2.03092507 -35.73560251 -3.30945312 -32.25 -4.375 C-31.62996094 -4.56707031 -31.00992188 -4.75914063 -30.37109375 -4.95703125 C-19.8378646 -7.03263994 -9.17573683 -5.48812938 0 0 Z M-42.25 18.625 C-46.52536583 25.35931901 -48.0368698 31.68885602 -47.25 39.625 C-45.24554535 47.76356887 -41.21638717 53.3497114 -34.25390625 57.94140625 C-27.88959735 61.29288635 -21.29958223 61.51622405 -14.25 60.625 C-11.25037272 59.68129704 -8.83365971 58.40088066 -6.25 56.625 C-5.363125 56.0475 -4.47625 55.47 -3.5625 54.875 C2.33638671 49.13554266 4.84583592 43.13870655 5.125 35 C5.03418825 27.54435556 2.85711097 22.13623414 -2.08203125 16.5546875 C-7.565379 11.38498292 -13.12426469 8.57826542 -20.6875 8.25 C-29.5977877 8.63274432 -36.3614514 11.89713338 -42.25 18.625 Z M-61.05859375 93.76953125 C-69.10815185 104.48496451 -72.37767426 115.97847157 -72.48828125 129.16015625 C-72.496353 130.0758287 -72.50442474 130.99150116 -72.51274109 131.93492126 C-72.5265349 133.8655307 -72.53727796 135.79616404 -72.54516602 137.72680664 C-72.55673291 139.70246516 -72.57725817 141.6780913 -72.60668945 143.65356445 C-72.64923274 146.51014406 -72.66551175 149.36579978 -72.67578125 152.22265625 C-72.69328934 153.10502457 -72.71079742 153.98739288 -72.72883606 154.89649963 C-72.72591049 155.72093063 -72.72298492 156.54536163 -72.7199707 157.39477539 C-72.72583694 158.11693741 -72.73170319 158.83909943 -72.73774719 159.58314514 C-71.98608589 162.729823 -70.90702154 163.77146308 -68.25 165.625 C-65.24416891 166.21382297 -62.28548347 166.171398 -59.23046875 166.14257812 C-57.8639769 166.15309204 -57.8639769 166.15309204 -56.46987915 166.16381836 C-53.45877597 166.18142252 -50.44861273 166.16976689 -47.4375 166.15625 C-45.34529439 166.15894421 -43.25308999 166.16282604 -41.16088867 166.16784668 C-36.77608316 166.17374502 -32.39160357 166.16516779 -28.00683594 166.14648438 C-22.38413042 166.12369485 -16.7621886 166.1368161 -11.13951111 166.16077423 C-6.81923663 166.17522301 -2.49914344 166.1706304 1.82113647 166.16026306 C3.89439992 166.15759324 5.96767979 166.16087448 8.04092407 166.17018127 C10.93788296 166.18033154 13.83360228 166.16486689 16.73046875 166.14257812 C17.58877289 166.15067505 18.44707703 166.15877197 19.33139038 166.16711426 C23.10881306 166.113226 25.12417951 166.06187162 28.28038025 163.8585968 C29.87787617 161.43064781 30.25895935 160.24403076 30.28344727 157.36987305 C30.2992836 156.53767746 30.31511993 155.70548187 30.33143616 154.84806824 C30.32399635 153.50595024 30.32399635 153.50595024 30.31640625 152.13671875 C30.32260483 151.20132767 30.32880341 150.26593658 30.33518982 149.30220032 C30.34229397 147.317607 30.33910362 145.33295415 30.32641602 143.34838867 C30.31272069 140.3606448 30.34640443 137.3761428 30.38476562 134.38867188 C30.45838091 116.44836473 27.2646904 102.88513487 14.65625 89.3828125 C3.9023496 79.05750958 -8.83335135 75.20259099 -23.38085938 75.25927734 C-37.84315104 75.58204348 -51.73216319 82.71076153 -61.05859375 93.76953125 Z " fill="#000000" transform="translate(135.25,43.375)"/>
<path d="M0 0 C8.09753591 6.81357144 14.68747863 14.68275682 16.6875 25.3125 C17.65223247 40.38446792 15.65068937 50.53335986 5.6875 62.3125 C5.0275 63.3025 4.3675 64.2925 3.6875 65.3125 C4.34234375 65.61800781 4.9971875 65.92351562 5.671875 66.23828125 C21.25115782 74.0499273 32.69796032 86.88229013 38.6875 103.3125 C41.20491845 111.00188621 42.14443844 118.00702725 42.12109375 126.078125 C42.1263356 127.15576111 42.13157745 128.23339722 42.13697815 129.34368896 C42.14335507 131.60248966 42.14211811 133.86132376 42.13354492 136.12011719 C42.1249872 139.56765546 42.1539353 143.01356028 42.18554688 146.4609375 C42.18715805 148.66666617 42.18658296 150.87239776 42.18359375 153.078125 C42.19482773 154.10117737 42.20606171 155.12422974 42.21763611 156.17828369 C42.14885033 163.25417319 40.97725684 167.63571294 36.16015625 173.01953125 C29.77761123 178.02302222 24.92473334 178.61090095 17.06713867 178.60302734 C16.10390182 178.60974457 15.14066498 178.61646179 14.14823914 178.62338257 C10.96726304 178.64236365 7.78649794 178.64628693 4.60546875 178.6484375 C2.38975437 178.65486565 0.17404084 178.66159402 -2.04167175 178.66860962 C-6.68608569 178.68058288 -11.33042524 178.68429042 -15.97485352 178.68310547 C-21.91655535 178.68290235 -27.8577785 178.7101973 -33.79936695 178.74464989 C-38.3762581 178.76692426 -42.95303419 178.77094283 -47.52997398 178.76988602 C-49.71996395 178.77224143 -51.90995711 178.78106156 -54.09989357 178.79655075 C-57.16825163 178.81621977 -60.23557924 178.8103685 -63.30395508 178.79833984 C-64.2024115 178.80957886 -65.10086792 178.82081787 -66.02655029 178.83239746 C-72.87818803 178.76439093 -78.18090493 177.07567212 -83.37109375 172.49609375 C-83.82613281 171.91988281 -84.28117188 171.34367188 -84.75 170.75 C-85.22308594 170.17121094 -85.69617188 169.59242188 -86.18359375 168.99609375 C-88.25859627 165.90153983 -88.444565 163.16842343 -88.47363281 159.55664062 C-88.48324036 158.59133423 -88.4928479 157.62602783 -88.50274658 156.63146973 C-88.50699646 155.58777222 -88.51124634 154.54407471 -88.515625 153.46875 C-88.52132507 152.38928101 -88.52702515 151.30981201 -88.53289795 150.19763184 C-88.54235253 147.9078062 -88.54888374 145.61796692 -88.55273438 143.328125 C-88.56238495 139.85391805 -88.59338165 136.38031669 -88.625 132.90625 C-88.63153584 130.67708683 -88.63678403 128.44791944 -88.640625 126.21875 C-88.6529718 125.19124634 -88.6653186 124.16374268 -88.67803955 123.10510254 C-88.64769289 113.08907448 -86.22080534 104.15304367 -81.6875 95.25 C-81.17135132 94.2293042 -81.17135132 94.2293042 -80.64477539 93.18798828 C-77.40237926 87.04135556 -73.35123823 82.10343143 -68.3125 77.3125 C-67.45205078 76.45785156 -67.45205078 76.45785156 -66.57421875 75.5859375 C-61.78679053 71.12985873 -56.10536732 68.26654807 -50.3125 65.3125 C-50.68761719 64.8278125 -51.06273437 64.343125 -51.44921875 63.84375 C-54.09196605 60.38221701 -56.67423346 56.89299762 -59.0625 53.25 C-59.44921875 52.66089844 -59.8359375 52.07179688 -60.234375 51.46484375 C-64.63855597 42.67243899 -64.62052947 31.53307195 -62.625 22.04296875 C-59.12483111 11.61538227 -51.55079025 2.05012904 -41.6875 -3.04296875 C-28.1373117 -8.62838863 -12.38290019 -8.69953262 0 0 Z M-44.3125 17.3125 C-49.23893723 24.23654745 -50.13532541 30.98280165 -49.3125 39.3125 C-46.98442882 47.16521678 -42.72782748 53.07622029 -35.6484375 57.234375 C-29.23672506 60.1936269 -22.3375262 61.1208407 -15.5078125 59.19921875 C-7.14651256 55.82196771 -1.83442661 50.59653671 2 42.5625 C3.79799877 34.06286945 3.23995832 26.79153866 -1.3125 19.3125 C-5.76404399 12.66152452 -11.48311704 8.96160232 -19.3125 7.3125 C-29.05162688 6.4729201 -37.76255699 9.97865424 -44.3125 17.3125 Z M-61.3125 90.3125 C-70.4636777 101.34134915 -74.43519081 112.94853484 -74.55078125 127.06640625 C-74.558853 128.00427475 -74.56692474 128.94214325 -74.57524109 129.90843201 C-74.58903669 131.88612033 -74.59977895 133.86383202 -74.60766602 135.84155273 C-74.61923264 137.86571212 -74.63975745 139.88983991 -74.66918945 141.91381836 C-74.71172719 144.83989159 -74.72801117 147.76506283 -74.73828125 150.69140625 C-74.75578934 151.59564835 -74.77329742 152.49989044 -74.79133606 153.43153381 C-74.78841049 154.27598557 -74.78548492 155.12043732 -74.7824707 155.99047852 C-74.78833694 156.73040543 -74.79420319 157.47033234 -74.80024719 158.23268127 C-74.05592498 161.40656993 -72.99329272 162.44844914 -70.3125 164.3125 C-67.30651704 164.90077241 -64.34804562 164.85889859 -61.29296875 164.83007812 C-59.9264769 164.84059204 -59.9264769 164.84059204 -58.53237915 164.85131836 C-55.52127597 164.86892252 -52.51111273 164.85726689 -49.5 164.84375 C-47.40779439 164.84644421 -45.31558999 164.85032604 -43.22338867 164.85534668 C-38.83858316 164.86124502 -34.45410357 164.85266779 -30.06933594 164.83398438 C-24.44663042 164.81119485 -18.8246886 164.8243161 -13.20201111 164.84827423 C-8.88173663 164.86272301 -4.56164344 164.8581304 -0.24136353 164.84776306 C1.83189992 164.84509324 3.90517979 164.84837448 5.97842407 164.85768127 C8.87538296 164.86783154 11.77110228 164.85236689 14.66796875 164.83007812 C15.52627289 164.83817505 16.38457703 164.84627197 17.26889038 164.85461426 C21.05279286 164.80063356 23.06171819 164.75110268 26.21986389 162.53759766 C27.79647748 160.14727816 28.18853886 159.02054339 28.18920898 156.19335938 C28.19858994 155.39152222 28.20797089 154.58968506 28.21763611 153.7635498 C28.20640213 152.90314087 28.19516815 152.04273193 28.18359375 151.15625 C28.1857766 149.80907898 28.1857766 149.80907898 28.18800354 148.43469238 C28.1863442 146.53162398 28.17477896 144.6285422 28.15405273 142.72558594 C28.1253771 139.85031146 28.13338763 136.97691516 28.14648438 134.1015625 C28.12769778 116.99906904 25.7889637 102.13879267 13.65234375 89.15234375 C2.01879583 78.25890226 -11.38354438 73.74730649 -27.1015625 74.03515625 C-39.88629142 74.61892056 -52.53613009 81.05892795 -61.3125 90.3125 Z " fill="#000000" transform="translate(279.3125,295.6875)"/>
<path d="M0 0 C4.04033175 3.63901934 7.53137724 7.81119429 11.0625 11.9375 C11.57876953 12.53240234 12.09503906 13.12730469 12.62695312 13.74023438 C21 23.49990048 21 23.49990048 21 28.6875 C20 32 20 32 18.3125 34 C15.04482991 35.41304652 13.37146013 35.10088494 10 34 C8.29295487 32.37471465 6.62080146 30.71130307 5 29 C4.99635437 30.29403748 4.99270874 31.58807495 4.98895264 32.92132568 C4.95204165 45.10519931 4.89431158 57.28881928 4.81609726 69.47249985 C4.77655637 75.73656018 4.74440025 82.00047854 4.72900391 88.26464844 C4.71388102 94.30780757 4.67951293 100.35057655 4.63169098 106.39356232 C4.61683209 108.70124169 4.60895642 111.00897674 4.60811615 113.3167038 C4.60575835 116.54456887 4.57877347 119.77134528 4.54589844 122.99902344 C4.55344398 124.43616699 4.55344398 124.43616699 4.56114197 125.90234375 C4.46040789 132.27801216 4.46040789 132.27801216 2.3460083 135.59370422 C-0.65071407 137.3900653 -2.59202458 137.50117225 -6.08203125 137.50170898 C-7.92414185 137.51578041 -7.92414185 137.51578041 -9.8034668 137.53013611 C-11.13981829 137.51965771 -12.47616306 137.50828869 -13.8125 137.49609375 C-15.18725664 137.49624878 -16.56201371 137.49773845 -17.93676758 137.50050354 C-20.81513845 137.50188674 -23.69301055 137.48934376 -26.57128906 137.46655273 C-30.2568933 137.4381675 -33.94166905 137.44090606 -37.62733459 137.45364285 C-40.46528168 137.46060496 -43.30303798 137.45280483 -46.14096069 137.44038582 C-47.49969755 137.43587643 -48.85845492 137.43553005 -50.2171936 137.43945122 C-52.11748638 137.44236828 -54.01777509 137.42367891 -55.91796875 137.40405273 C-56.99844482 137.39864975 -58.0789209 137.39324677 -59.19213867 137.38768005 C-62.34472513 136.95240397 -63.73000909 136.19431196 -66 134 C-66.49609375 132.0625 -66.49609375 132.0625 -66.4375 130 C-66.43621094 129.319375 -66.43492187 128.63875 -66.43359375 127.9375 C-65.86386988 125.39170686 -65.05285902 124.59842939 -63 123 C-60.62715149 122.63923645 -60.62715149 122.63923645 -57.79418945 122.65942383 C-56.18066589 122.65996765 -56.18066589 122.65996765 -54.5345459 122.66052246 C-52.8410199 122.68354431 -52.8410199 122.68354431 -51.11328125 122.70703125 C-49.55498596 122.71156311 -49.55498596 122.71156311 -47.96520996 122.71618652 C-44.08087239 122.73189425 -40.19667632 122.77377817 -36.3125 122.8125 C-27.629375 122.874375 -18.94625 122.93625 -10 123 C-10.33 92.64 -10.66 62.28 -11 31 C-12.65 32.32 -14.3 33.64 -16 35 C-19.18409977 34.936318 -21.14932332 34.51040601 -23.875 32.875 C-25.76141583 29.73097362 -25.45854448 27.62141825 -25 24 C-23.06557121 20.84743207 -20.66023625 18.17821751 -18.1875 15.4375 C-14.0869074 10.78577459 -10.63162971 6.67417835 -8 1 C-5.11138291 -0.44430855 -3.20352299 -0.37688506 0 0 Z " fill="#000000" transform="translate(423,268)"/>
<path d="M0 0 C3.7038964 0.61731607 4.66877446 1.61384648 7 4.5 C7.49219131 6.85065842 7.49219131 6.85065842 7.48101807 9.49871826 C7.48651672 10.50550125 7.49201538 11.51228424 7.49768066 12.54957581 C7.48329956 13.64793259 7.46891846 14.74628937 7.45410156 15.87792969 C7.45468567 17.03918869 7.45526978 18.20044769 7.45587158 19.39689636 C7.45308279 23.23885898 7.42195142 27.08004775 7.390625 30.921875 C7.38316544 33.58418085 7.37727445 36.24644373 7.37347412 38.90875244 C7.36104538 45.20217017 7.32822546 51.49530971 7.28807616 57.78860497 C7.24335504 64.95418106 7.22137061 72.11977049 7.20129442 79.28545141 C7.15949248 94.02379598 7.08614156 108.76184187 7 123.5 C15.91 123.17 24.82 122.84 34 122.5 C32.68 121.18 31.36 119.86 30 118.5 C29.16118349 115.05887087 29.37859023 111.66971251 31.0625 108.5 C34.24169707 106.85912409 36.45301677 107.09279347 40 107.5 C42.96290578 109.20449313 45.44146324 111.37035075 48 113.625 C49.00933594 114.47964844 49.00933594 114.47964844 50.0390625 115.3515625 C51.38291728 116.49306077 52.71518019 117.64835451 54.03515625 118.81738281 C55.97202555 120.52283 55.97202555 120.52283 58.05859375 121.98730469 C62.61860047 125.375197 62.61860047 125.375197 63.65771484 128.43969727 C63.92557859 131.53040457 63.64490062 133.59783372 61.82128906 136.14892578 C60.17617545 137.77149641 58.4651523 139.16534296 56.625 140.5625 C55.98812256 141.07127686 55.35124512 141.58005371 54.69506836 142.10424805 C53.41177429 143.11994036 52.11909346 144.12389564 50.81689453 145.11523438 C49.21821473 146.33368531 47.65123615 147.59349445 46.08984375 148.859375 C39.39653754 154.03194549 39.39653754 154.03194549 35 153.5625 C32 152.5 32 152.5 30 150.5 C29.46036585 144.92378049 29.46036585 144.92378049 30 142.5 C31.30069983 141.13481301 32.63222605 139.79797919 34 138.5 C32.35016113 138.48598145 32.35016113 138.48598145 30.66699219 138.47167969 C26.58145834 138.43177063 22.49667681 138.36600996 18.41162109 138.29248047 C16.64446689 138.26427603 14.87718666 138.24305882 13.10986328 138.22900391 C10.56737778 138.20756642 8.02640662 138.16091497 5.484375 138.109375 C4.69569031 138.10814636 3.90700562 138.10691772 3.09442139 138.10565186 C-0.28707097 138.01560259 -2.48458735 137.89658506 -5.20891571 135.80034637 C-7.38458788 133.00606158 -7.50232083 131.65656877 -7.50793457 128.14855957 C-7.51921387 127.06341568 -7.53049316 125.97827179 -7.54211426 124.86024475 C-7.53401733 123.67466476 -7.52592041 122.48908478 -7.51757812 121.26757812 C-7.5245874 120.01520859 -7.53159668 118.76283905 -7.53881836 117.47251892 C-7.55340916 114.04043904 -7.54998717 110.60932347 -7.53730202 107.17729759 C-7.52717153 103.58502281 -7.53656782 99.9927891 -7.54284668 96.4005127 C-7.55012298 90.36800746 -7.54053599 84.33569814 -7.52148438 78.30322266 C-7.49971545 71.32983402 -7.50676685 64.35691317 -7.52879 57.38353586 C-7.54694464 51.39529114 -7.54950208 45.40718721 -7.53903532 39.41892385 C-7.53280066 35.84284898 -7.53196375 32.26699396 -7.54518127 28.69093323 C-7.55888622 24.70457794 -7.53988883 20.71874621 -7.51757812 16.73242188 C-7.52567505 15.54684189 -7.53377197 14.3612619 -7.54211426 13.13975525 C-7.53083496 12.05461136 -7.51955566 10.96946747 -7.50793457 9.85144043 C-7.50642647 8.90903252 -7.50491837 7.9666246 -7.50336456 6.99565887 C-6.62413266 2.63646662 -4.29256157 0.71542693 0 0 Z " fill="#000000" transform="translate(92,267.5)"/>
<path d="M0 0 C3.5 0.875 3.5 0.875 5.5 2.5 C6.96981805 5.99081787 6.48413921 8.26648956 5.5 11.875 C3.44140625 13.58984375 3.44140625 13.58984375 1.5 14.875 C2.59136765 14.87864563 3.68273529 14.88229126 4.80717468 14.88604736 C15.09238065 14.92298886 25.37728699 14.98075235 35.66226482 15.05890274 C40.94990467 15.09841164 46.23737714 15.13058343 51.52514648 15.14599609 C56.62818498 15.16114012 61.73076338 15.19554574 66.83359718 15.24330902 C68.78039361 15.25814606 70.72725572 15.26604234 72.67410851 15.26688385 C75.40132064 15.26924827 78.12725588 15.29628514 80.85424805 15.32910156 C82.06158096 15.32155602 82.06158096 15.32155602 83.29330444 15.31385803 C87.03212475 15.38346353 89.29159716 15.74694192 92.50520325 17.72161865 C94.5 19.875 94.5 19.875 95.0625 22.875 C94.3551379 26.64759785 93.58139118 27.60243363 90.5 29.875 C87.50461689 30.27775372 84.87211396 30.43932718 81.87597656 30.42089844 C81.00732468 30.43123611 80.13867279 30.44157379 79.24369812 30.45222473 C76.37581881 30.48169526 73.50864395 30.4831528 70.640625 30.484375 C68.65092621 30.49935378 66.66123987 30.51608028 64.67156982 30.53448486 C59.43714838 30.57820449 54.20289468 30.59816774 48.96832275 30.61322021 C43.62591617 30.63277462 38.28369116 30.67474652 32.94140625 30.71484375 C22.46099345 30.79019588 11.98062119 30.8404571 1.5 30.875 C2.7375 32.24398437 2.7375 32.24398437 4 33.640625 C6.44132457 36.34134031 6.5 36.67600658 6.5 40.625 C5.5 43.875 5.5 43.875 2.5 45.875 C-1.04854338 46.4913723 -3.44310463 46.5134065 -6.57910156 44.61914062 C-8.84041679 42.86479602 -10.987618 41.02825181 -13.125 39.125 C-13.86234375 38.49078125 -14.5996875 37.8565625 -15.359375 37.203125 C-16.78241684 35.97900298 -18.19970684 34.7481534 -19.61035156 33.50976562 C-21.18934061 32.1437565 -22.81966054 30.83737773 -24.4609375 29.546875 C-27.01038586 27.4565227 -27.3985929 26.42006318 -28 23.1875 C-26.63402026 14.13788422 -13.43116197 7.12561642 -6.5 1.875 C-3.5 -0.125 -3.5 -0.125 0 0 Z " fill="#000000" transform="translate(222.5,116.125)"/>
</svg>
